<svg xmlns="http://www.w3.org/2000/svg"
  width="400"
  height="400"
  viewBox="0 0 400 400">
  <g fill="none"
    fill-rule="evenodd">
    <rect width="400"
      height="400"
      fill="#5A5A5A"/>
    <path fill="#242424"
      d="M334.819624,341.976738 C313.326605,313.885463 285.607414,299.356871 238.767546,294.690492 C230.313429,292.988732 223.941229,285.498052 223.941229,276.601747 C223.941229,270.08758 244.838716,250.586684 244.689425,250.442287 C266.259129,228.134222 277.823068,191.885756 277.823068,164.01801 C277.823068,120.734082 242.986854,85.6 199.999184,85.6 C157.011514,85.6 122.173669,120.734082 122.173669,164.01801 C122.173669,192.037495 133.440657,228.502963 155.232259,250.811845 C155.232259,250.811845 176.058771,270.088395 176.058771,276.602563 C176.058771,286.019348 168.944195,293.871428 159.751781,294.987444 C113.871291,299.805561 86.4506818,314.254205 65.1762967,341.977554 C59.0243626,349.982189 55.687748,366.065696 55.4666667,374.666681 C55.5400885,376.889738 55.4666667,411.726052 55.4666667,411.726052 C55.4666667,428.105695 68.7348084,441.372244 85.1152202,441.372244 L314.883148,441.372244 C331.262744,441.372244 344.533333,428.105695 344.533333,411.726052 C344.533333,411.726052 344.460727,376.889738 344.533333,374.666681 C344.313884,366.064881 340.969111,349.980557 334.819624,341.976738 Z"
      opacity=".703"/>
  </g>
</svg>
