<?xml version="1.0" standalone="no"?>
<!DOCTYPE svg PUBLIC "-//W3C//DTD SVG 20010904//EN"
 "http://www.w3.org/TR/2001/REC-SVG-20010904/DTD/svg10.dtd">
<svg version="1.0" xmlns="http://www.w3.org/2000/svg"
 width="512.000000pt" height="478.000000pt" viewBox="0 0 512.000000 478.000000"
 preserveAspectRatio="xMidYMid meet">

<g transform="translate(0.000000,478.000000) scale(0.100000,-0.100000)"
fill="#000000" stroke="none">
<path d="M3660 4392 l0 -369 -102 -6 c-57 -4 -157 -16 -224 -27 -850 -139
-1473 -656 -1735 -1441 -63 -188 -129 -521 -129 -649 l0 -45 52 60 c28 33 97
105 152 160 477 471 1077 638 1849 514 l137 -22 0 -365 c0 -228 4 -362 10
-360 5 2 333 331 730 731 l720 728 -722 730 c-397 401 -725 729 -730 729 -4 0
-8 -166 -8 -368z"/>
<path d="M162 3749 c-65 -32 -99 -66 -135 -133 l-22 -41 0 -1680 0 -1680 22
-41 c34 -63 66 -97 125 -129 l53 -30 2050 0 2050 0 54 30 c65 36 105 83 131
153 20 51 20 76 18 807 l-3 753 -287 -284 -288 -285 0 -304 0 -305 -1675 0
-1675 0 0 1315 0 1315 343 0 342 1 39 56 c81 117 205 262 330 385 l129 128
-770 0 -770 0 -61 -31z"/>
</g>
</svg>
