<?xml version="1.0" standalone="no"?>
<!DOCTYPE svg PUBLIC "-//W3C//DTD SVG 20010904//EN"
 "http://www.w3.org/TR/2001/REC-SVG-20010904/DTD/svg10.dtd">
<svg version="1.0" xmlns="http://www.w3.org/2000/svg"
 width="2000.000000pt" height="1020.000000pt" viewBox="0 0 2000.000000 1020.000000"
 preserveAspectRatio="xMidYMid meet">

<g transform="translate(0.000000,1020.000000) scale(0.100000,-0.100000)"
fill="#000000" stroke="none">
<path d="M899 9956 c-19 -25 -41 -47 -50 -49 -8 -2 -132 -154 -275 -338 l-259
-334 -3 -811 c-3 -658 -1 -813 10 -821 7 -6 73 -32 146 -58 72 -27 132 -52
132 -56 0 -5 -4 -9 -9 -9 -5 0 -48 -16 -95 -36 -75 -31 -86 -39 -86 -60 0 -20
-9 -29 -43 -43 l-44 -19 -6 -77 c-4 -43 -7 -401 -7 -795 l0 -718 57 -79 c32
-44 144 -195 248 -336 l190 -256 656 -1 656 0 28 40 c15 22 34 40 41 40 8 0
127 151 264 335 l250 336 -1 822 c-1 452 -4 845 -7 873 l-7 50 -290 -56 c-159
-32 -401 -79 -537 -105 l-247 -48 -3 -35 c-3 -33 -6 -37 -42 -44 -22 -5 -42
-11 -45 -14 -3 -3 -8 -189 -11 -412 -4 -353 -7 -407 -20 -407 -13 0 -15 127
-15 1080 0 1020 1 1080 18 1083 16 3 17 -21 17 -402 0 -226 4 -407 9 -410 5
-3 87 10 182 28 96 19 282 55 414 81 383 74 474 93 485 100 5 3 10 19 10 35 0
24 5 31 28 36 70 15 64 -54 60 638 l-3 621 -260 337 -260 337 -621 1 -622 0
-33 -44z m1464 -353 l237 -307 0 -518 c0 -285 -4 -518 -8 -518 -4 0 -102 -18
-218 -41 -430 -83 -668 -129 -671 -129 -2 0 -3 180 -3 400 l0 400 -165 0 -165
0 0 -1275 0 -1275 165 0 165 0 0 464 0 464 23 5 c12 3 164 33 337 67 173 33
360 69 414 80 54 11 105 20 112 20 12 0 14 -124 14 -746 l0 -746 -222 -299
-221 -299 -606 0 -606 1 -218 295 -217 294 2 706 3 706 313 129 c172 71 317
129 323 129 39 0 -33 30 -314 130 l-322 116 -3 723 -2 723 28 36 c16 21 122
157 236 305 l207 267 572 0 572 0 238 -307z m-1708 -1898 c135 -48 245 -89
245 -90 0 -2 -25 -13 -55 -25 l-54 -22 -53 25 c-29 13 -64 28 -78 31 -14 4
-49 16 -77 27 -29 10 -79 28 -110 40 -32 12 -70 26 -85 31 l-28 10 0 750 0
750 23 31 22 32 3 -751 2 -751 245 -88z m955 685 c0 -471 -13 -422 108 -395
37 8 231 46 432 85 201 38 375 72 388 75 15 4 22 1 22 -10 0 -8 -10 -17 -22
-20 -55 -12 -229 -47 -428 -85 -296 -57 -414 -80 -487 -95 l-63 -13 0 391 c0
430 0 427 -62 427 -23 0 -28 4 -28 25 0 24 2 25 70 25 l70 0 0 -410z m-1044
-2685 c86 -116 198 -265 247 -332 l91 -123 608 0 c334 0 608 -4 608 -8 0 -5
-8 -16 -18 -26 -17 -15 -73 -16 -647 -14 l-628 3 -233 315 -234 315 0 731 0
731 23 10 22 10 3 -701 2 -701 156 -210z m1044 1130 l0 -405 -25 0 -25 0 0
399 c0 310 3 400 13 404 37 16 37 19 37 -398z"/>
<path d="M2860 9955 l0 -45 -44 0 -43 0 -6 -67 c-4 -38 -7 -1129 -7 -2426 l0
-2357 558 2 557 3 3 37 c3 36 5 37 45 40 l42 3 3 858 c1 556 6 857 12 857 6 0
11 -314 12 -897 l3 -898 563 -3 562 -2 0 39 c0 40 0 40 43 43 l42 3 0 1042 0
1043 -200 200 -200 200 213 214 213 213 -3 624 c-2 393 -7 630 -13 640 -9 15
-76 94 -463 547 l-113 132 -889 0 -890 0 0 -45z m1997 -353 l262 -307 1 -550
0 -550 -250 -250 c-137 -137 -250 -254 -250 -260 0 -6 110 -120 245 -255 l245
-245 0 -917 0 -918 -460 0 -460 0 0 900 0 900 -162 -2 -163 -3 -3 -897 -2
-898 -455 0 -455 0 0 2273 c0 1251 3 2277 7 2280 3 4 373 7 822 7 l816 0 262
-308z m-1999 -2039 l2 -2313 485 0 485 0 0 -25 0 -25 -515 0 -515 0 0 2341 0
2340 28 -3 27 -3 3 -2312z m1232 -1414 l0 -899 490 0 490 0 0 -25 0 -25 -515
0 -515 0 0 889 c0 967 3 911 -55 915 -18 1 -25 7 -25 22 0 29 1 29 69 26 l61
-4 0 -899z"/>
<path d="M3860 8535 l0 -385 170 0 170 0 0 385 0 385 -170 0 -170 0 0 -385z
m240 0 l0 -295 -25 0 -25 0 0 258 c0 187 -3 261 -12 270 -7 7 -27 12 -45 12
-29 0 -33 3 -33 25 0 24 2 25 70 25 l70 0 0 -295z m-100 -100 c0 -167 -2 -195
-15 -195 -13 0 -15 28 -15 195 0 167 2 195 15 195 13 0 15 -28 15 -195z"/>
<path d="M8296 9955 c-21 -25 -43 -45 -49 -45 -7 -1 -129 -152 -272 -338
l-260 -337 -3 -816 -3 -817 53 -20 c29 -10 95 -34 146 -52 51 -18 89 -37 85
-41 -4 -4 -46 -23 -93 -42 -73 -30 -85 -39 -88 -61 -3 -19 -14 -30 -46 -45
l-43 -18 -6 -69 c-4 -38 -7 -397 -7 -798 l0 -729 138 -186 c76 -102 187 -252
247 -333 l110 -148 467 0 c258 0 468 -2 468 -5 0 -4 -78 -106 -172 -228 l-173
-221 -3 -822 -3 -821 146 -53 c80 -29 145 -54 145 -55 0 -1 -43 -20 -95 -41
-81 -33 -95 -42 -97 -64 -2 -18 -14 -30 -44 -44 -41 -18 -41 -19 -48 -85 -3
-36 -6 -397 -6 -801 l0 -735 246 -333 246 -332 653 0 654 0 31 44 c18 24 40
46 49 49 9 2 122 146 251 320 129 175 238 317 242 317 4 0 9 -163 10 -362 l3
-363 1435 -8 c789 -4 1445 -5 1456 -3 14 4 28 21 38 46 13 32 21 40 41 40 43
0 72 79 80 220 4 63 13 183 21 265 7 83 14 156 14 163 0 8 22 12 78 12 l78 0
23 -251 c12 -138 25 -302 28 -363 4 -84 9 -114 21 -123 12 -10 240 -13 1063
-13 576 0 1054 3 1063 6 11 4 16 19 16 44 0 38 0 39 43 42 l42 3 5 685 c4 552
7 678 17 650 11 -32 108 -387 138 -505 7 -27 57 -212 110 -410 53 -198 105
-391 115 -429 10 -38 24 -73 32 -77 15 -10 1168 -12 1192 -3 11 4 16 19 16 44
0 38 0 39 43 42 l42 3 5 2275 5 2275 575 5 575 5 3 38 c3 36 4 37 42 37 25 0
40 5 44 16 8 21 8 4657 -1 4762 l-6 82 -493 0 -494 0 0 -45 0 -45 -44 0 -43 0
-6 -67 c-4 -38 -7 -351 -8 -698 l-1 -630 -23 75 c-18 56 -184 658 -312 1132
-4 12 10 26 46 48 28 18 51 39 51 48 0 10 21 29 46 44 25 16 42 32 39 38 -3 5
-31 10 -61 10 -30 0 -54 3 -54 8 0 4 26 23 58 42 l57 35 -1245 3 c-685 1
-1251 0 -1257 -3 -7 -2 -13 -15 -13 -29 0 -45 -10 -56 -50 -56 -36 0 -38 -2
-43 -37 -12 -87 -78 -522 -86 -568 -11 -68 -12 -59 -61 295 -22 162 -44 318
-48 345 l-7 50 -577 3 -577 2 10 -32 c15 -55 13 -58 -45 -58 l-54 0 11 -41 c8
-34 7 -43 -5 -50 -16 -9 -23 18 591 -2424 l161 -639 0 -698 0 -698 -225 0
-225 0 0 558 c0 306 -3 587 -7 624 l-6 68 -356 2 -356 3 -5 392 c-3 242 -9
396 -15 401 -5 5 -59 29 -120 52 -177 68 -173 60 -58 107 87 36 98 44 101 67
3 21 13 31 48 46 l44 19 0 1074 c0 591 -3 1108 -6 1150 l-7 77 -563 0 -564 0
0 -45 c0 -42 -2 -45 -26 -45 -27 0 -28 5 -8 73 5 16 -27 17 -602 15 l-608 -3
-12 -40 c-10 -36 -14 -40 -45 -43 l-35 -3 -44 -172 c-69 -272 -68 -272 -69
-57 -1 102 -4 215 -8 253 l-6 67 -548 0 -549 0 0 -45 0 -45 -44 0 -43 0 -7
-77 c-3 -42 -6 -1065 -6 -2275 l0 -2198 -190 0 c-104 0 -190 2 -190 5 0 3 74
105 165 227 l166 223 -3 1755 -3 1755 -261 335 -260 335 -621 3 -620 2 -37
-45z m1462 -350 l233 -300 -1 -1683 0 -1683 -37 -53 c-21 -28 -119 -161 -218
-294 l-180 -242 -605 0 -605 0 -46 63 c-25 34 -125 169 -222 300 l-177 238 0
693 c0 543 3 696 13 703 6 6 134 60 282 121 149 61 293 120 320 132 l50 22
-290 104 c-159 57 -309 111 -332 120 l-43 16 0 715 0 715 187 242 c103 132
211 271 240 309 l54 67 572 -2 572 -3 233 -300z m1502 -425 l5 -725 178 690
c97 380 182 707 188 728 l10 37 504 0 c353 0 505 -3 505 -11 0 -6 -31 -108
-69 -227 -82 -257 -165 -517 -296 -932 -53 -168 -134 -422 -180 -566 l-83
-261 235 -779 c128 -428 245 -815 258 -859 13 -44 78 -262 145 -485 66 -223
123 -413 126 -422 5 -17 -24 -18 -503 -18 l-509 0 -16 63 c-14 59 -110 412
-288 1067 -44 162 -108 401 -142 530 l-63 235 -3 -947 -2 -948 -455 0 -455 0
0 2280 0 2280 453 -2 452 -3 5 -725z m2585 -295 l0 -1020 -135 -58 c-74 -32
-211 -90 -305 -129 -93 -39 -174 -74 -178 -78 -4 -4 18 -17 50 -29 32 -12 174
-68 316 -123 l257 -102 0 -413 0 -413 365 0 365 0 0 -585 0 -585 -840 0 -840
0 0 2273 c0 1251 3 2277 7 2280 3 4 216 6 472 5 l466 -3 0 -1020z m1690 1003
c3 -13 52 -369 110 -793 58 -423 107 -774 110 -780 2 -5 4 -3 4 5 1 8 13 89
26 180 14 91 43 284 65 430 21 146 60 405 85 575 26 171 50 330 54 355 l6 45
493 3 c314 1 492 -1 492 -8 0 -5 -175 -670 -390 -1477 l-390 -1467 0 -803 0
-803 -435 0 -435 0 0 790 0 790 -310 1232 c-170 678 -338 1347 -373 1485 -35
139 -62 255 -59 258 3 3 216 5 473 5 l469 0 5 -22z m2662 -350 c56 -205 193
-704 303 -1108 111 -404 216 -788 233 -854 l32 -118 5 1223 5 1224 400 0 400
0 3 -2277 2 -2278 -519 0 -520 0 -15 53 c-8 28 -22 77 -29 107 -24 91 -414
1538 -477 1770 -32 118 -77 287 -101 375 -23 88 -45 167 -50 175 -5 8 -9 -546
-9 -1232 l0 -1248 -400 0 -400 0 0 999 c0 787 3 1001 13 1008 6 5 137 59 289
118 152 60 275 112 272 115 -3 3 -132 61 -287 130 l-282 126 -3 1019 c-1 561
0 1026 3 1033 3 9 116 12 517 12 l513 0 102 -372z m-7947 -1918 l0 -2260 -25
0 -25 0 0 2260 0 2260 25 0 25 0 0 -2260z m1280 2253 c0 -18 -164 -649 -170
-656 -4 -5 -8 36 -9 89 -1 90 1 100 22 123 18 20 37 79 78 239 35 138 58 212
66 212 7 0 13 -3 13 -7z m1280 -2110 c0 -1164 -2 -2114 -6 -2111 -3 3 -22 62
-43 130 -31 102 -35 127 -24 134 11 8 14 323 13 1943 0 1293 -3 1938 -10 1945
-12 12 -12 18 0 50 7 20 16 26 40 26 l30 0 0 -2117z m1684 2100 c7 -23 126
-495 465 -1845 l271 -1077 0 -846 0 -845 245 0 245 0 -1 -2242 c-1 -1389 -5
-2220 -11 -2183 -5 33 -24 181 -42 330 -33 263 -33 270 -15 283 19 13 19 62
19 1876 0 1435 -3 1865 -12 1874 -9 9 -79 12 -254 12 l-241 0 -7 60 c-5 47 -3
65 8 82 14 20 16 110 16 764 l0 741 -44 174 c-25 96 -184 730 -355 1409 -171
679 -322 1280 -336 1335 -14 55 -25 103 -25 107 0 5 15 8 34 8 24 0 36 -5 40
-17z m1396 -5 c0 -13 -14 -111 -30 -218 -16 -107 -44 -294 -61 -415 -18 -121
-35 -224 -39 -228 -4 -4 -13 40 -20 98 -11 93 -10 108 3 123 9 10 24 71 36
152 46 291 51 328 63 418 10 78 14 92 30 92 12 0 18 -7 18 -22z m2790 -842 c0
-473 -2 -857 -5 -854 -3 3 -22 68 -43 145 -31 116 -36 142 -24 149 11 8 13
124 12 717 l-1 707 31 -2 30 -2 0 -860z m-5970 -1233 c0 -1007 -4 -1801 -9
-1793 -5 8 -133 429 -285 936 l-277 921 20 59 c11 32 49 154 86 269 141 448
286 904 381 1203 37 116 72 212 76 212 4 0 8 -813 8 -1807z m4470 -92 c116
-51 210 -96 210 -100 0 -4 -25 -15 -55 -26 -49 -16 -57 -17 -72 -3 -10 8 -94
48 -186 88 l-168 74 1 708 c1 550 -1 712 -11 724 -10 12 -5 43 27 162 l39 147
3 -840 2 -841 210 -93z m-9152 24 c119 -43 230 -83 246 -90 l30 -11 -57 -23
-57 -23 -42 20 c-42 19 -68 28 -278 102 l-105 37 -3 752 -2 753 22 31 23 32 3
-751 2 -751 218 -78z m8865 -129 c12 -8 66 -33 120 -56 53 -24 97 -46 97 -49
0 -4 -30 -18 -67 -33 -58 -22 -68 -30 -71 -53 -3 -20 -13 -31 -46 -45 l-43
-18 -6 -68 c-4 -38 -7 -482 -7 -986 l0 -918 -22 -5 c-13 -3 -138 -4 -278 -3
l-255 3 -3 758 -2 758 59 222 c33 122 74 276 91 342 30 117 48 182 91 343 11
42 45 169 75 282 56 214 85 321 114 430 10 36 30 110 44 165 47 177 67 250 74
265 4 8 8 -285 10 -652 l2 -668 23 -14z m-3113 139 c-14 -8 -29 -14 -35 -14
-5 0 1 6 15 14 14 8 30 14 35 14 6 0 -1 -6 -15 -14z m-70 -29 c-14 -7 -36 -16
-50 -20 -14 -3 -7 3 15 13 45 22 73 27 35 7z m-120 -51 c-14 -8 -29 -14 -35
-14 -5 0 1 6 15 14 14 8 30 14 35 14 6 0 -1 -6 -15 -14z m-90 -40 c-7 -8 -17
-12 -23 -8 -6 4 -3 9 9 14 27 11 28 11 14 -6z m3470 -1260 l0 -985 -30 0 -30
0 0 974 0 974 28 10 c15 6 28 11 30 11 1 1 2 -442 2 -984z m-8911 -767 l243
-328 504 0 c478 0 504 -1 495 -17 -26 -45 -40 -56 -54 -45 -10 9 -159 13 -518
14 l-503 3 -233 313 -233 313 0 733 0 733 23 10 22 10 5 -706 5 -706 244 -327z
m9919 1500 c5 -24 71 -272 147 -553 76 -280 183 -681 240 -890 l102 -380 536
-3 537 -2 0 -25 0 -25 -560 0 -560 0 0 80 0 80 -30 0 c-16 0 -30 3 -30 6 0 5
-13 54 -65 249 -34 126 -158 588 -177 655 -61 223 -101 379 -107 415 -4 28
-13 43 -28 50 -23 10 -23 12 -23 197 0 104 2 188 4 188 2 0 9 -19 14 -42z
m-6483 -1048 c70 -261 138 -513 151 -560 30 -111 31 -110 -11 -110 -20 0 -37
6 -39 13 -2 6 -14 50 -26 97 -31 119 -53 200 -104 385 -24 88 -49 183 -56 210
-7 28 -24 61 -36 76 -23 24 -24 30 -24 204 0 102 4 175 9 170 4 -6 66 -224
136 -485z m6508 395 c9 -33 54 -204 102 -380 47 -176 95 -353 106 -392 35
-131 58 -217 69 -252 7 -26 7 -37 -3 -43 -6 -4 -77 -7 -157 -5 l-145 2 -2 580
c-2 331 1 574 6 565 5 -8 16 -42 24 -75z m-6578 -692 c26 -98 58 -216 71 -262
13 -46 24 -89 24 -97 0 -11 -18 -14 -80 -14 l-80 0 0 275 c0 151 4 275 8 275
5 0 30 -80 57 -177z m-755 -553 c37 -47 141 -182 233 -300 l166 -215 1 -522
c0 -484 -1 -523 -17 -523 -14 0 -455 -84 -778 -149 l-90 -18 -5 401 -5 401
-162 3 -163 2 0 -1280 0 -1280 163 2 162 3 3 465 2 465 278 53 c152 30 352 68
445 86 l167 33 0 -751 0 -751 -221 -298 -221 -297 -602 0 -602 0 -222 299
-222 299 2 703 3 702 90 37 c50 21 197 81 328 135 l239 99 -114 41 c-62 23
-211 77 -330 119 l-218 79 0 719 0 720 172 221 c94 122 201 259 236 305 l64
82 576 -2 576 -3 66 -85z m1642 -1602 l3 -1693 360 -2 360 -2 3 -585 2 -586
-835 0 -835 0 0 2280 0 2280 470 0 470 0 2 -1692z m2752 1655 c3 -21 31 -240
61 -488 31 -247 89 -720 130 -1049 41 -330 73 -601 71 -603 -2 -2 -111 -47
-242 -99 -131 -53 -242 -99 -247 -103 -4 -4 118 -62 271 -130 l279 -123 112
-912 c62 -501 116 -935 120 -963 5 -29 6 -55 3 -58 -3 -3 -218 -5 -478 -5
l-473 0 -5 33 c-3 17 -7 61 -10 97 -27 314 -47 542 -52 577 l-5 43 -215 0
c-197 0 -214 -1 -214 -17 0 -27 -49 -620 -56 -680 l-6 -53 -470 0 -470 0 6 38
c3 20 31 233 61 472 30 239 79 633 110 875 31 242 94 742 140 1110 47 369 112
884 145 1145 33 261 71 572 86 690 14 118 27 221 30 228 3 9 143 12 658 12
l654 0 6 -37z m1790 10 c3 -10 39 -142 80 -293 41 -151 165 -606 276 -1010
111 -404 224 -820 252 -925 28 -104 55 -194 60 -199 4 -6 8 542 8 1217 l0
1227 400 0 400 0 -2 -2277 -3 -2278 -516 -3 -516 -2 -57 212 c-32 117 -113
420 -181 673 -68 253 -171 638 -230 855 -59 217 -128 474 -153 570 l-47 175
-5 -1240 -5 -1240 -397 -3 -398 -2 0 2280 0 2280 514 0 c482 0 515 -1 520 -17z
m-5584 -2306 l0 -2314 1397 -7 c768 -3 1398 -8 1400 -9 1 -2 0 -13 -4 -25 l-5
-22 -1419 0 -1419 0 0 2309 c0 1964 -2 2310 -14 2320 -10 8 -77 11 -220 11
-113 -1 -210 1 -216 5 -5 3 -15 15 -20 26 -10 19 -5 19 255 19 l265 0 0 -2313z
m2376 2281 c-3 -18 -42 -321 -86 -673 -168 -1335 -226 -1791 -390 -3088 -16
-126 -31 -231 -34 -235 -3 -3 -6 123 -6 279 l0 284 23 10 c16 7 23 20 25 45 2
19 16 139 32 265 16 127 68 536 115 910 47 374 104 822 126 995 22 173 47 369
55 435 8 66 31 254 52 418 33 257 36 301 25 317 -14 19 -30 20 -594 20 l-579
0 0 25 0 25 621 0 621 0 -6 -32z m3783 -835 c0 -491 -4 -859 -9 -848 -5 11
-23 73 -40 138 -29 109 -31 120 -16 136 14 16 16 89 16 692 0 512 -3 678 -12
687 -9 9 -69 12 -210 12 -109 0 -198 4 -198 9 0 5 10 16 23 24 18 13 58 16
235 16 l212 1 -1 -867z m-6263 664 c2 -7 3 -90 2 -184 l-3 -170 -135 174 c-74
96 -136 179 -138 184 -2 5 56 9 132 9 102 0 138 -3 142 -13z m2374 -7 c0 -11
-11 -106 -25 -212 -13 -106 -67 -535 -120 -953 -53 -418 -125 -989 -161 -1270
-35 -280 -70 -556 -76 -612 -12 -105 -28 -139 -28 -58 l0 45 -360 0 -360 0 0
1533 c0 844 3 1537 7 1540 3 4 258 7 565 7 550 0 558 0 558 -20z m2077 -1720
c1 -954 0 -1730 -3 -1725 -2 6 -33 249 -69 540 -36 292 -69 539 -74 550 -6 14
-45 36 -110 64 -55 25 -101 47 -101 51 0 3 19 13 43 21 34 13 43 21 45 43 3
22 13 31 47 46 l44 19 -6 73 c-3 40 -61 516 -128 1058 -67 542 -120 988 -118
993 2 4 100 6 216 5 l212 -3 2 -1735z m1711 1146 c1 -324 0 -588 -2 -585 -7 7
-316 1142 -316 1161 0 17 11 18 158 16 l157 -3 3 -589z m-8206 -1395 c130 -47
239 -89 242 -92 3 -3 -19 -16 -50 -28 -49 -21 -57 -22 -72 -8 -9 8 -28 18 -42
22 -14 4 -103 35 -197 68 l-173 62 0 748 0 748 23 30 22 31 5 -748 5 -748 237
-85z m958 679 c0 -233 4 -410 9 -410 5 0 123 22 262 50 567 110 671 130 680
130 5 0 9 -7 9 -15 0 -8 -3 -15 -6 -15 -3 0 -74 -13 -157 -30 -84 -16 -303
-59 -487 -95 -184 -36 -341 -65 -347 -65 -10 0 -13 85 -13 393 0 292 -3 396
-12 405 -7 7 -27 12 -45 12 -29 0 -33 3 -33 25 0 24 2 25 70 25 l70 0 0 -410z
m-100 -189 c0 -226 3 -412 8 -414 4 -2 95 13 202 34 107 21 231 45 275 53 331
63 596 116 605 121 5 3 10 19 10 35 0 33 2 35 53 44 l37 7 0 -261 c0 -143 -2
-260 -4 -260 -5 0 -1027 -199 -1053 -205 -18 -4 -23 -13 -23 -35 0 -31 -14
-42 -71 -54 -25 -5 -26 -10 -33 -82 -3 -43 -6 -227 -6 -411 0 -289 -2 -333
-15 -333 -13 0 -15 126 -15 1078 0 593 3 1082 7 1085 3 4 10 7 15 7 4 0 8
-184 8 -409z m5315 -590 c-6 -5 -46 -24 -90 -41 -44 -17 -88 -39 -98 -48 -11
-10 -21 -12 -27 -6 -7 7 28 26 102 56 128 52 125 51 113 39z m-6414 -992 l0
-696 246 -332 246 -331 613 0 c338 0 614 -3 614 -7 -1 -5 -9 -18 -19 -31 l-19
-22 -629 0 -628 1 -237 321 -238 320 0 729 c0 683 1 729 18 738 9 6 20 9 24 8
5 -1 8 -315 9 -698z m1199 221 l0 -400 -25 0 -25 0 0 400 0 400 25 0 25 0 0
-400z m6700 44 c32 -121 113 -421 180 -669 67 -247 130 -484 141 -525 31 -117
89 -329 105 -387 l15 -53 534 0 535 0 0 -25 0 -25 -567 2 -567 3 -63 235 c-35
129 -75 278 -89 330 -14 52 -34 129 -45 170 -11 41 -27 98 -34 125 -7 28 -39
145 -70 260 -32 116 -67 251 -80 300 -17 70 -27 92 -43 100 -21 9 -22 15 -22
199 0 104 3 187 6 184 3 -3 32 -104 64 -224z m-2237 -1211 c15 -175 28 -342
27 -370 l0 -53 1005 0 1005 0 0 -25 0 -25 -1029 0 -1028 0 -8 93 c-23 313 -56
621 -66 633 -8 10 -36 14 -100 14 -88 0 -89 0 -89 25 l0 25 128 0 128 0 27
-317z"/>
<path d="M8770 7615 l0 -1275 165 0 165 0 0 1275 0 1275 -165 0 -165 0 0
-1275z m238 3 l-3 -1183 -25 0 -25 0 -3 1144 c-1 825 -5 1148 -13 1158 -6 7
-27 13 -45 13 -30 0 -34 3 -34 25 0 24 2 25 75 25 l75 0 -2 -1182z m-100 -100
c-3 -955 -5 -1083 -18 -1083 -13 0 -15 128 -18 1083 -2 1078 -2 1082 18 1082
20 0 20 -4 18 -1082z"/>
<path d="M14366 3813 c-8 -109 -48 -601 -71 -873 -8 -96 -17 -209 -20 -250 -3
-41 -8 -101 -11 -132 l-6 -58 126 0 126 0 -5 53 c-3 28 -17 183 -30 342 -14
160 -34 387 -45 505 -10 118 -24 281 -31 363 -7 81 -16 147 -20 147 -3 0 -9
-44 -13 -97z m35 -1163 c3 -49 1 -55 -17 -55 -17 0 -19 6 -16 75 1 41 6 93 9
115 l7 40 7 -60 c4 -33 9 -85 10 -115z"/>
<path d="M5610 8719 c0 -5 5 -7 10 -4 6 3 10 8 10 11 0 2 -4 4 -10 4 -5 0 -10
-5 -10 -11z"/>
<path d="M6471 7079 c-20 -20 -31 -40 -30 -57 1 -27 1 -27 10 4 10 34 53 79
67 70 6 -3 15 -45 22 -93 17 -127 19 -130 13 -18 -7 134 -24 153 -82 94z"/>
<path d="M6391 6574 c0 -11 3 -14 6 -6 3 7 2 16 -1 19 -3 4 -6 -2 -5 -13z"/>
<path d="M5935 6409 c-4 -6 -4 -13 -1 -16 3 -4 6 0 6 8 1 8 8 3 16 -11 8 -14
13 -17 10 -7 -3 10 -6 23 -6 28 0 12 -17 11 -25 -2z"/>
<path d="M6021 6233 c11 -34 19 -42 19 -20 0 7 -7 22 -15 33 -13 17 -14 16 -4
-13z"/>
<path d="M5902 5860 c0 -14 2 -19 5 -12 2 6 2 18 0 25 -3 6 -5 1 -5 -13z"/>
<path d="M6573 5635 c0 -38 2 -53 4 -32 2 20 2 52 0 70 -2 17 -4 1 -4 -38z"/>
<path d="M6523 5295 c0 -33 2 -45 4 -27 2 18 2 45 0 60 -2 15 -4 0 -4 -33z"/>
<path d="M6492 5220 c0 -14 2 -19 5 -12 2 6 2 18 0 25 -3 6 -5 1 -5 -13z"/>
<path d="M5959 5063 c-13 -16 -12 -17 4 -4 9 7 17 15 17 17 0 8 -8 3 -21 -13z"/>
<path d="M5928 5001 c-36 -27 -69 -47 -72 -44 -3 4 -6 1 -6 -5 0 -26 38 -8 94
43 33 30 57 55 55 55 -2 0 -34 -22 -71 -49z"/>
<path d="M4942 4318 c-18 -18 -15 -28 8 -28 13 0 20 7 20 20 0 23 -10 26 -28
8z"/>
</g>
</svg>
