<?xml version="1.0" standalone="no"?>
<!DOCTYPE svg PUBLIC "-//W3C//DTD SVG 20010904//EN"
 "http://www.w3.org/TR/2001/REC-SVG-20010904/DTD/svg10.dtd">
<svg version="1.0" xmlns="http://www.w3.org/2000/svg"
 width="2000.000000pt" height="1020.000000pt" viewBox="0 0 2000.000000 1020.000000"
 preserveAspectRatio="xMidYMid meet">

<g transform="translate(0.000000,1020.000000) scale(0.100000,-0.100000)"
fill="#000000" stroke="none">
<path d="M896 9961 c-15 -21 -35 -41 -44 -44 -9 -2 -132 -152 -272 -332 -227
-293 -255 -334 -264 -379 -5 -29 -11 -385 -13 -821 -3 -610 -1 -774 9 -786 7
-9 67 -35 133 -59 66 -23 123 -45 128 -49 4 -4 -31 -23 -78 -42 -76 -30 -85
-36 -85 -60 0 -22 -7 -29 -44 -43 -43 -16 -44 -19 -51 -69 -4 -29 -9 -390 -11
-804 l-4 -751 163 -219 c90 -120 202 -270 249 -334 71 -97 91 -117 118 -123
18 -3 312 -6 653 -6 l621 0 42 45 c23 25 46 45 52 45 8 0 406 525 490 647 l23
33 -3 869 c-2 478 -6 873 -10 877 -7 6 -204 -30 -948 -175 l-135 -27 -3 -35
c-3 -34 -5 -36 -50 -45 l-47 -9 -7 -55 c-3 -30 -6 -216 -7 -412 -1 -232 -5
-358 -11 -358 -7 0 -10 363 -10 1069 0 703 3 1072 10 1076 7 4 10 -132 10
-400 0 -330 2 -407 13 -411 15 -5 1047 191 1085 206 16 7 22 18 22 39 0 25 5
31 43 43 l42 13 3 535 c2 294 0 577 -3 627 l-7 93 -260 335 -259 335 -628 0
-628 0 -27 -39z m1524 -308 c246 -317 255 -330 261 -383 4 -30 8 -308 8 -617
l1 -561 -42 -14 c-38 -11 -43 -17 -46 -45 -2 -24 -9 -34 -25 -38 -12 -3 -245
-48 -517 -100 -272 -53 -505 -99 -517 -102 l-23 -5 0 406 c0 354 -2 407 -15
412 -8 4 -22 1 -30 -6 -13 -11 -15 -145 -13 -1094 l3 -1081 25 0 25 0 5 407
c3 223 7 409 10 411 3 3 25 9 50 14 42 8 45 11 48 44 l3 35 147 28 c81 16 316
61 522 101 206 41 377 71 380 68 3 -2 6 -389 8 -859 l3 -855 -23 -32 c-103
-146 -472 -633 -481 -636 -7 -2 -30 -23 -53 -47 l-41 -44 -610 0 c-336 0 -625
3 -642 6 -24 5 -43 23 -83 78 -29 39 -139 187 -246 329 l-192 259 4 741 c2
408 7 764 11 790 7 46 10 50 51 67 35 15 44 24 44 44 0 21 11 29 81 58 128 52
122 65 -56 129 -66 24 -123 48 -127 53 -11 16 -3 1522 8 1582 9 45 37 85 264
377 139 180 259 327 266 327 7 0 25 18 41 40 l28 40 616 0 616 0 253 -327z"/>
<path d="M774 9643 c-114 -148 -220 -284 -236 -305 l-28 -36 2 -723 3 -723
322 -116 c281 -100 353 -130 314 -130 -6 0 -151 -58 -323 -129 l-313 -129 -3
-706 -2 -706 217 -294 218 -295 606 -1 606 0 221 299 222 299 0 746 c0 622 -2
746 -14 746 -7 0 -58 -9 -112 -20 -54 -11 -241 -47 -414 -80 -173 -34 -325
-64 -337 -67 l-23 -5 0 -464 0 -464 -165 0 -165 0 0 1275 0 1275 165 0 165 0
0 -400 c0 -220 1 -400 3 -400 3 0 241 46 671 129 116 23 214 41 218 41 4 0 8
233 8 518 l0 518 -237 307 -238 307 -572 0 -572 0 -207 -267z"/>
<path d="M383 9263 l-23 -31 0 -750 0 -750 28 -10 c15 -5 53 -19 85 -31 31
-12 81 -30 110 -40 28 -11 63 -23 77 -27 14 -3 49 -18 78 -31 l53 -25 54 22
c30 12 55 23 55 25 0 1 -110 42 -245 90 l-245 88 -2 751 -3 751 -22 -32z"/>
<path d="M1470 8775 c0 -21 5 -25 28 -25 62 0 62 3 62 -427 l0 -391 63 13 c73
15 191 38 487 95 199 38 373 73 428 85 12 3 22 12 22 20 0 11 -7 14 -22 10
-13 -3 -187 -37 -388 -75 -201 -39 -395 -77 -432 -85 -121 -27 -108 -76 -108
395 l0 410 -70 0 c-68 0 -70 -1 -70 -25z"/>
<path d="M383 7307 l-23 -10 0 -731 0 -731 234 -315 233 -315 628 -3 c574 -2
630 -1 647 14 10 10 18 21 18 26 0 4 -274 8 -608 8 l-608 0 -91 123 c-49 67
-161 216 -247 332 l-156 210 -2 701 -3 701 -22 -10z"/>
<path d="M1573 7233 c-10 -4 -13 -94 -13 -404 l0 -399 25 0 25 0 0 405 c0 417
0 414 -37 398z"/>
<path d="M2850 9960 l0 -40 -44 0 -43 0 -7 -77 c-3 -42 -6 -1135 -6 -2429 0
-2316 0 -2353 19 -2364 27 -14 1075 -14 1102 0 13 7 19 21 19 44 0 33 1 34 45
38 l45 3 0 -38 c0 -31 4 -39 26 -47 36 -14 1080 -13 1105 1 13 6 19 21 19 44
0 33 1 34 43 37 l42 3 0 1042 0 1043 -197 198 c-109 108 -198 202 -198 207 0
6 95 105 210 220 l210 210 -3 590 c-2 325 -8 613 -13 641 -8 43 -21 64 -75
125 -36 41 -163 190 -283 332 l-218 257 -899 0 -899 0 0 -40z m1941 -162 c85
-100 210 -248 279 -328 109 -127 125 -151 134 -195 5 -27 11 -311 13 -630 l3
-580 -210 -210 c-133 -133 -210 -217 -210 -230 0 -12 73 -92 198 -217 l197
-198 3 -1029 3 -1030 -43 -3 c-42 -3 -43 -4 -46 -40 -2 -20 -9 -39 -17 -42
-23 -9 -1083 -2 -1092 7 -4 5 -9 409 -11 898 -2 555 -6 889 -12 889 -6 0 -11
-320 -12 -852 l-3 -853 -45 -5 c-43 -5 -45 -7 -48 -40 -2 -19 -9 -38 -15 -42
-14 -9 -1048 -11 -1071 -2 -15 6 -16 222 -16 2353 0 1290 3 2376 6 2413 l7 67
41 3 c40 3 41 4 44 41 l3 37 883 0 882 0 155 -182z"/>
<path d="M2957 9903 c-4 -3 -7 -1029 -7 -2280 l0 -2273 455 0 455 0 2 898 3
897 163 3 162 2 0 -900 0 -900 460 0 460 0 0 918 0 917 -245 245 c-135 135
-245 249 -245 255 0 6 113 123 250 260 l250 250 0 550 -1 550 -262 307 -262
308 -816 0 c-449 0 -819 -3 -822 -7z m1243 -1368 l0 -385 -170 0 -170 0 0 385
0 385 170 0 170 0 0 -385z"/>
<path d="M3960 8805 c0 -22 4 -25 33 -25 18 0 38 -5 45 -12 9 -9 12 -83 12
-270 l0 -258 25 0 25 0 0 295 0 295 -70 0 c-68 0 -70 -1 -70 -25z"/>
<path d="M3970 8435 c0 -167 2 -195 15 -195 13 0 15 28 15 195 0 167 -2 195
-15 195 -13 0 -15 -28 -15 -195z"/>
<path d="M2800 7541 l0 -2341 515 0 515 0 0 25 0 25 -485 0 -485 0 -2 2313 -3
2312 -27 3 -28 3 0 -2340z"/>
<path d="M3964 7051 c-2 -2 -4 -14 -4 -25 0 -15 7 -21 25 -22 58 -4 55 52 55
-915 l0 -889 515 0 515 0 0 25 0 25 -490 0 -490 0 0 899 0 899 -61 4 c-33 1
-63 1 -65 -1z"/>
<path d="M8293 9961 c-15 -22 -35 -42 -44 -44 -8 -2 -132 -154 -274 -338 -252
-323 -260 -335 -266 -389 -4 -30 -8 -400 -8 -821 -1 -602 2 -769 12 -776 6 -6
66 -29 132 -53 66 -23 123 -45 127 -49 4 -4 -31 -22 -77 -41 -76 -30 -85 -36
-85 -59 0 -21 -9 -30 -49 -47 l-48 -21 -6 -69 c-4 -38 -7 -398 -7 -801 l0
-731 231 -314 c127 -172 242 -324 255 -338 l24 -25 456 -5 456 -5 -163 -210
c-154 -198 -163 -213 -170 -265 -4 -30 -8 -402 -8 -827 -1 -769 -1 -772 19
-783 12 -6 76 -31 143 -55 109 -39 119 -44 97 -53 -159 -63 -160 -63 -160 -91
0 -23 -7 -29 -42 -42 -42 -15 -43 -17 -50 -70 -3 -30 -6 -393 -7 -808 l-1
-754 242 -326 c133 -179 247 -329 253 -333 5 -4 303 -8 662 -8 l652 0 37 45
c20 25 42 45 49 45 7 0 117 142 246 316 l234 316 5 -359 5 -358 1270 -7 c699
-4 1355 -7 1460 -5 l190 2 23 43 c18 32 29 42 48 42 20 0 29 9 46 47 17 39 26
99 44 318 13 149 23 276 24 283 0 8 20 12 65 12 44 0 67 -4 70 -12 7 -20 55
-591 55 -652 0 -95 -110 -86 1094 -86 813 0 1065 3 1074 12 7 7 12 27 12 44 0
31 2 33 43 36 l42 3 5 655 c3 360 8 646 12 635 4 -11 86 -317 183 -680 98
-363 184 -670 191 -682 l14 -23 598 0 c452 0 601 3 610 12 7 7 12 27 12 44 0
31 2 33 43 36 l42 3 3 2273 2 2272 555 0 c305 0 558 0 563 1 27 4 42 23 42 54
0 33 2 35 33 35 18 0 38 5 45 12 16 16 18 4753 2 4763 -5 3 -10 26 -10 51 l0
44 -501 0 -501 0 4 -40 4 -40 -43 0 c-23 0 -45 -6 -50 -12 -4 -7 -10 -312 -13
-677 l-5 -665 -159 582 c-87 320 -157 584 -155 586 2 2 24 16 48 31 24 14 45
34 48 43 2 10 27 32 55 51 48 31 50 34 33 47 -10 8 -42 14 -69 14 l-51 1 60
37 60 37 -1259 3 c-1001 2 -1261 0 -1268 -10 -4 -7 -8 -25 -8 -40 0 -26 -3
-28 -40 -28 -33 0 -40 -4 -44 -22 -5 -23 -28 -173 -70 -453 -16 -110 -24 -142
-29 -120 -4 17 -25 163 -47 325 -22 162 -43 307 -46 323 l-6 27 -579 0 c-318
0 -579 -3 -579 -8 0 -4 4 -22 9 -40 l10 -32 -56 0 -56 0 7 -41 c5 -32 3 -44
-9 -53 -15 -11 -8 -47 74 -366 49 -195 223 -885 385 -1532 l296 -1177 0 -690
0 -691 -215 0 -215 0 -4 578 c-2 317 -7 598 -11 625 l-7 47 -354 0 -354 0 -1
343 c-1 188 -4 367 -7 396 l-7 55 -110 43 c-60 24 -121 48 -135 54 -23 10 -19
13 60 46 98 40 110 48 110 75 0 13 14 25 45 39 l45 20 0 1087 c0 598 -3 1117
-7 1155 l-6 67 -573 0 -574 0 0 -40 c0 -33 -3 -40 -20 -40 -18 0 -18 2 -5 40
l14 40 -614 0 -614 0 -11 -40 c-10 -37 -14 -40 -45 -40 -39 0 -31 19 -85 -200
-45 -185 -49 -186 -49 -10 -1 85 -4 185 -8 223 l-6 67 -553 0 -554 0 0 -40 0
-40 -45 0 -45 0 0 -44 c0 -25 -4 -48 -10 -51 -7 -4 -10 -758 -10 -2231 l0
-2224 -176 0 c-137 0 -174 3 -168 13 4 6 76 105 161 219 l153 206 -1 1709 c-1
939 -4 1732 -7 1761 -7 50 -19 68 -266 387 l-259 335 -628 0 -628 0 -28 -39z
m1527 -311 c243 -314 255 -332 262 -382 3 -29 6 -817 7 -1751 l1 -1698 -160
-216 c-89 -119 -159 -224 -158 -232 3 -14 28 -16 193 -16 l190 0 3 2225 c1
1463 5 2227 12 2234 6 6 10 27 10 47 0 37 1 38 43 41 41 3 42 4 45 41 l3 37
533 0 533 0 7 -61 c3 -34 7 -130 7 -213 1 -83 5 -164 9 -181 4 -16 8 -24 9
-16 0 8 8 22 17 32 9 10 35 94 58 186 l42 168 35 5 c28 4 36 11 45 40 l12 35
591 3 591 2 -11 -27 c-15 -39 -5 -55 33 -51 30 3 33 6 36 41 l3 37 553 0 553
0 7 -61 c3 -34 6 -546 6 -1138 l-1 -1076 -42 -20 c-28 -13 -44 -28 -47 -44 -5
-20 -23 -32 -95 -62 -88 -37 -109 -55 -83 -76 7 -6 67 -32 133 -57 66 -26 122
-49 125 -52 3 -3 7 -182 10 -397 l5 -392 351 -3 352 -2 7 -43 c4 -23 10 -303
14 -622 l6 -580 230 0 230 0 3 703 2 702 -331 1318 c-182 724 -355 1410 -384
1524 -45 176 -51 207 -38 212 12 5 14 16 10 46 l-5 39 52 3 51 3 -3 38 -3 37
555 0 556 0 5 -22 c3 -13 25 -165 49 -340 27 -196 49 -324 58 -337 l15 -21 11
23 c9 18 65 370 91 567 6 44 7 45 46 50 37 5 40 8 45 40 l5 35 1220 2 1220 3
-33 -21 c-49 -32 -39 -53 28 -59 l55 -5 -42 -29 c-24 -16 -43 -35 -43 -42 0
-8 -22 -28 -50 -45 -33 -20 -50 -38 -50 -51 0 -38 312 -1163 326 -1174 8 -6
14 -17 15 -25 1 -8 5 -3 9 11 4 14 8 295 9 625 1 330 4 630 7 667 l7 67 46 3
46 3 -3 38 -3 37 481 0 480 0 0 -38 c0 -21 5 -43 10 -48 7 -7 9 -805 8 -2375
l-3 -2364 -40 -5 c-38 -5 -40 -7 -43 -42 -2 -21 -4 -39 -5 -40 -1 -1 -261 -5
-577 -8 l-575 -5 -3 -2272 -2 -2272 -43 -3 c-41 -3 -42 -4 -47 -43 l-5 -40
-593 -3 -592 -2 -10 22 c-6 13 -91 322 -189 688 -99 366 -188 682 -199 704
l-19 38 -6 -47 c-4 -26 -7 -333 -7 -681 l0 -633 -42 -3 c-42 -3 -43 -4 -48
-43 l-5 -40 -1054 -3 c-770 -1 -1057 1 -1067 9 -9 7 -14 32 -14 63 0 95 -52
651 -62 664 -15 17 -157 17 -164 -1 -2 -7 -15 -136 -28 -287 -26 -306 -38
-357 -84 -362 -20 -2 -33 -15 -51 -47 l-24 -44 -816 6 c-449 4 -1098 7 -1443
7 l-628 0 -2 357 c-3 322 -5 358 -19 361 -12 2 -87 -91 -249 -310 -127 -172
-240 -316 -249 -320 -10 -3 -32 -25 -50 -47 l-33 -41 -644 0 -645 0 -244 327
-244 328 -1 730 c0 402 3 760 6 796 l7 66 41 15 c32 12 42 21 46 43 4 25 15
33 85 61 80 32 109 55 90 72 -6 5 -46 21 -90 37 -44 15 -104 36 -132 47 l-53
19 1 762 c0 419 4 787 8 817 7 52 16 67 169 264 89 115 162 217 162 227 0 18
-17 19 -454 19 l-455 0 -25 23 c-13 12 -128 163 -255 335 l-231 314 0 721 c0
397 3 752 6 789 l7 67 48 20 c37 16 48 27 51 47 3 22 15 31 83 59 79 32 98 52
73 72 -7 6 -69 31 -138 55 l-125 45 -3 719 c-2 395 0 761 3 812 l7 93 260 334
c142 184 265 335 272 335 7 0 26 18 41 40 l28 40 616 0 616 0 255 -330z"/>
<path d="M8327 9843 c-29 -38 -137 -177 -240 -309 l-187 -242 0 -715 0 -715
43 -16 c23 -9 173 -63 332 -120 l290 -104 -50 -22 c-27 -12 -171 -71 -320
-132 -148 -61 -276 -115 -282 -121 -10 -7 -13 -160 -13 -703 l0 -693 177 -238
c97 -131 197 -266 222 -300 l46 -63 605 0 605 0 180 242 c99 133 197 266 218
294 l37 53 0 1683 1 1683 -233 300 -233 300 -572 3 -572 2 -54 -67z m773
-2228 l0 -1275 -165 0 -165 0 0 1275 0 1275 165 0 165 0 0 -1275z"/>
<path d="M8854 8796 c-3 -8 -4 -25 -2 -38 2 -19 10 -24 41 -26 20 -2 38 -4 39
-5 2 -1 5 -519 8 -1152 l5 -1150 35 0 35 0 0 1190 0 1190 -78 3 c-61 2 -79 0
-83 -12z m146 -1181 c0 -1168 0 -1175 -20 -1175 -20 0 -20 7 -20 1136 0 763
-3 1142 -10 1155 -8 13 -21 19 -45 19 -28 0 -35 4 -35 20 0 18 7 20 65 20 l65
0 0 -1175z"/>
<path d="M8872 7518 c3 -955 5 -1083 18 -1083 13 0 15 128 18 1083 2 1078 2
1082 -18 1082 -20 0 -20 -4 -18 -1082z"/>
<path d="M10350 7630 l0 -2280 455 0 455 0 2 948 3 947 63 -235 c34 -129 98
-368 142 -530 178 -655 274 -1008 288 -1067 l16 -63 509 0 c479 0 508 1 503
18 -3 9 -60 199 -126 422 -67 223 -132 441 -145 485 -13 44 -130 431 -258 859
l-235 779 83 261 c46 144 127 398 180 566 131 415 214 675 296 932 38 119 69
221 69 227 0 8 -152 11 -505 11 l-504 0 -10 -37 c-6 -21 -91 -348 -188 -728
l-178 -690 -5 725 -5 725 -452 3 -453 2 0 -2280z"/>
<path d="M12907 9903 c-4 -3 -7 -1029 -7 -2280 l0 -2273 840 0 840 0 0 585 0
585 -365 0 -365 0 0 413 0 413 -257 102 c-142 55 -284 111 -316 123 -32 12
-54 25 -50 29 4 4 85 39 178 78 94 39 231 97 305 129 l135 58 0 1020 0 1020
-466 3 c-256 1 -469 -1 -472 -5z"/>
<path d="M14588 9905 c-3 -3 24 -119 59 -258 35 -138 203 -807 373 -1485 l310
-1232 0 -790 0 -790 435 0 435 0 0 803 0 803 390 1467 c215 807 390 1472 390
1477 0 7 -178 9 -492 8 l-493 -3 -6 -45 c-4 -25 -28 -184 -54 -355 -25 -170
-64 -429 -85 -575 -22 -146 -51 -339 -65 -430 -13 -91 -25 -172 -26 -180 0 -8
-2 -10 -4 -5 -3 6 -52 357 -110 780 -58 424 -107 780 -110 793 l-5 22 -469 0
c-257 0 -470 -2 -473 -5z"/>
<path d="M17065 9898 c-3 -7 -4 -472 -3 -1033 l3 -1019 282 -126 c155 -69 284
-127 287 -130 3 -3 -120 -55 -272 -115 -152 -59 -283 -113 -289 -118 -10 -7
-13 -221 -13 -1008 l0 -999 400 0 400 0 0 1248 c0 686 4 1240 9 1232 5 -8 27
-87 50 -175 24 -88 69 -257 101 -375 63 -232 453 -1679 477 -1770 7 -30 21
-79 29 -107 l15 -53 520 0 519 0 -2 2278 -3 2277 -400 0 -400 0 -5 -1224 -5
-1223 -32 118 c-17 66 -122 450 -233 854 -110 404 -247 903 -303 1108 l-102
372 -513 0 c-401 0 -514 -3 -517 -12z"/>
<path d="M10200 7620 l0 -2260 25 0 25 0 0 2260 0 2260 -25 0 -25 0 0 -2260z"/>
<path d="M11451 9668 c-41 -160 -60 -219 -78 -239 -21 -23 -23 -33 -22 -123 1
-53 5 -94 9 -89 6 7 170 638 170 656 0 4 -6 7 -13 7 -8 0 -31 -74 -66 -212z"/>
<path d="M12740 9854 c-12 -32 -12 -38 0 -50 7 -7 10 -652 10 -1945 1 -1620
-2 -1935 -13 -1943 -11 -7 -7 -32 24 -134 21 -68 40 -127 43 -130 4 -3 6 947
6 2111 l0 2117 -30 0 c-24 0 -33 -6 -40 -26z"/>
<path d="M14420 9872 c0 -4 11 -52 25 -107 14 -55 165 -656 336 -1335 171
-679 330 -1313 355 -1409 l44 -174 0 -741 c0 -654 -2 -744 -16 -764 -11 -17
-13 -35 -8 -82 l7 -60 241 0 c175 0 245 -3 254 -12 9 -9 12 -439 12 -1874 0
-1814 0 -1863 -19 -1876 -18 -13 -18 -20 15 -283 18 -149 37 -297 42 -330 6
-37 10 794 11 2183 l1 2242 -245 0 -245 0 0 845 0 846 -271 1077 c-339 1350
-458 1822 -465 1845 -4 12 -16 17 -40 17 -19 0 -34 -3 -34 -8z"/>
<path d="M15842 9788 c-12 -90 -17 -127 -63 -418 -12 -81 -27 -142 -36 -152
-13 -15 -14 -30 -3 -123 7 -58 16 -102 20 -98 4 4 21 107 39 228 17 121 45
308 61 415 35 234 36 240 12 240 -16 0 -20 -14 -30 -92z"/>
<path d="M18620 9173 c1 -593 -1 -709 -12 -717 -12 -7 -7 -33 24 -149 21 -77
40 -142 43 -145 3 -3 5 381 5 854 l0 860 -30 2 -31 2 1 -707z"/>
<path d="M12690 9578 c0 -6 -6 -19 -13 -27 -8 -9 -32 -74 -54 -146 -23 -71
-71 -222 -107 -335 -264 -830 -386 -1220 -386 -1234 0 -37 539 -1807 558
-1831 l20 -25 6 31 c8 41 8 3492 0 3542 -6 34 -24 53 -24 25z m10 -1800 c0
-964 -4 -1746 -9 -1738 -4 8 -128 416 -275 906 l-268 890 187 590 c103 324
201 634 219 689 18 55 55 171 82 257 27 87 52 158 57 158 4 0 7 -789 7 -1752z"/>
<path d="M16926 9318 c-32 -119 -37 -150 -27 -162 10 -12 12 -174 11 -724 l-1
-708 168 -74 c92 -40 176 -80 186 -88 15 -14 23 -13 72 3 30 11 55 22 55 26 0
4 -94 49 -210 100 l-210 93 -2 841 -3 840 -39 -147z"/>
<path d="M7782 9263 l-22 -31 2 -753 3 -752 105 -37 c210 -74 236 -83 278
-102 l42 -20 57 23 57 23 -30 11 c-16 7 -127 47 -246 90 l-218 78 -2 751 -3
751 -23 -32z"/>
<path d="M16854 8914 c-3 -10 -12 -32 -20 -49 -8 -16 -131 -471 -274 -1010
l-260 -980 3 -765 2 -765 285 0 285 0 5 985 c3 542 7 986 8 986 1 1 24 11 51
23 39 16 50 27 53 47 2 21 13 30 58 48 44 18 55 27 55 45 0 19 -17 30 -110 71
l-110 49 -5 660 c-3 362 -8 663 -12 667 -4 4 -10 -2 -14 -12z m19 -1331 c6 -5
58 -29 114 -54 57 -24 103 -47 103 -50 0 -4 -27 -17 -60 -29 -52 -20 -60 -26
-60 -49 0 -21 -9 -30 -49 -47 l-48 -21 -6 -69 c-4 -38 -7 -482 -7 -986 l0
-918 -270 0 -270 0 0 752 0 752 251 946 c138 520 258 970 267 1000 16 53 17
31 20 -581 2 -493 5 -639 15 -646z"/>
<path d="M13760 7725 c-14 -8 -20 -14 -15 -14 6 0 21 6 35 14 14 8 21 14 15
14 -5 0 -21 -6 -35 -14z"/>
<path d="M13675 7689 c-22 -10 -29 -16 -15 -13 28 7 80 33 65 33 -5 0 -28 -9
-50 -20z"/>
<path d="M13570 7645 c-14 -8 -20 -14 -15 -14 6 0 21 6 35 14 14 8 21 14 15
14 -5 0 -21 -6 -35 -14z"/>
<path d="M13486 7611 c-12 -5 -15 -10 -9 -14 6 -4 16 0 23 8 14 17 13 17 -14
6z"/>
<path d="M16938 7318 l-28 -10 0 -974 0 -974 30 0 30 0 0 985 c0 542 -1 985
-2 984 -2 0 -15 -5 -30 -11z"/>
<path d="M7783 7307 l-23 -10 0 -733 0 -733 233 -313 233 -313 503 -3 c359 -1
508 -5 518 -14 14 -11 28 0 54 45 9 16 -17 17 -495 17 l-504 0 -243 328 -244
327 -5 706 -5 706 -22 -10z"/>
<path d="M17960 6932 c0 -185 0 -187 23 -197 15 -7 24 -22 28 -50 6 -36 46
-192 107 -415 19 -67 143 -529 177 -655 52 -195 65 -244 65 -249 0 -3 14 -6
30 -6 l30 0 0 -80 0 -80 560 0 560 0 0 25 0 25 -537 2 -536 3 -102 380 c-57
209 -164 610 -240 890 -76 281 -142 529 -147 553 -5 23 -12 42 -14 42 -2 0 -4
-84 -4 -188z"/>
<path d="M11350 6345 c0 -174 1 -180 24 -204 12 -15 29 -48 36 -76 7 -27 32
-122 56 -210 51 -185 73 -266 104 -385 12 -47 24 -91 26 -97 2 -7 19 -13 39
-13 42 0 41 -1 11 110 -13 47 -81 299 -151 560 -70 261 -132 479 -136 485 -5
5 -9 -68 -9 -170z"/>
<path d="M17965 6459 c-3 -30 -5 -292 -3 -584 l3 -530 159 -3 c88 -1 163 1
168 6 11 11 -278 1095 -303 1136 l-17 28 -7 -53z m165 -549 c77 -289 142 -531
145 -537 3 -10 -30 -13 -145 -13 l-150 0 1 548 c0 301 2 543 5 537 2 -5 67
-246 144 -535z"/>
<path d="M11355 5858 c-3 -29 -5 -154 -3 -278 l3 -225 83 -3 c65 -2 83 0 88
12 3 8 -22 117 -56 243 -58 217 -87 302 -102 303 -4 0 -9 -24 -13 -52z m89
-238 c31 -118 59 -223 62 -232 5 -16 -3 -18 -65 -18 l-71 0 0 242 c0 133 4
238 8 233 5 -6 35 -107 66 -225z"/>
<path d="M9388 5188 c-35 -46 -142 -183 -236 -305 l-172 -221 0 -720 0 -719
218 -79 c119 -42 268 -96 330 -119 l114 -41 -239 -99 c-131 -54 -278 -114
-328 -135 l-90 -37 -3 -702 -2 -703 222 -299 222 -299 602 0 602 0 221 297
221 298 0 751 0 751 -167 -33 c-93 -18 -293 -56 -445 -86 l-278 -53 -2 -465
-3 -465 -162 -3 -163 -2 0 1280 0 1280 163 -2 162 -3 5 -401 5 -401 90 18
c323 65 764 149 778 149 16 0 17 39 17 523 l-1 522 -166 215 c-92 118 -196
253 -233 300 l-66 85 -576 3 -576 2 -64 -82z"/>
<path d="M11370 2990 l0 -2280 835 0 835 0 -2 586 -3 585 -360 2 -360 2 -3
1693 -2 1692 -470 0 -470 0 0 -2280z"/>
<path d="M13746 5258 c-3 -7 -16 -110 -30 -228 -15 -118 -53 -429 -86 -690
-33 -261 -98 -776 -145 -1145 -46 -368 -109 -868 -140 -1110 -31 -242 -80
-636 -110 -875 -30 -239 -58 -452 -61 -472 l-6 -38 470 0 470 0 6 53 c7 60 56
653 56 680 0 16 17 17 214 17 l215 0 5 -43 c5 -35 25 -263 52 -577 3 -36 7
-80 10 -97 l5 -33 473 0 c260 0 475 2 478 5 3 3 2 29 -3 58 -4 28 -58 462
-120 963 l-112 912 -279 123 c-153 68 -275 126 -271 130 5 4 116 50 247 103
131 52 240 97 242 99 2 2 -30 273 -71 603 -41 329 -99 802 -130 1049 -30 248
-58 467 -61 488 l-6 37 -654 0 c-515 0 -655 -3 -658 -12z m653 -1495 c7 -82
21 -245 31 -363 11 -118 31 -345 45 -505 13 -159 27 -314 30 -342 l5 -53 -126
0 -126 0 6 58 c3 31 8 91 11 132 3 41 12 154 20 250 23 272 63 764 71 873 4
53 10 97 13 97 4 0 13 -66 20 -147z"/>
<path d="M14371 2807 c-7 -9 -13 -56 -14 -118 l-2 -104 30 0 30 0 -3 105 c-4
110 -16 146 -41 117z m23 -114 c6 -83 5 -93 -10 -93 -15 0 -16 9 -11 73 4 39
7 83 7 96 0 51 8 12 14 -76z"/>
<path d="M15820 2980 l0 -2280 398 2 397 3 5 1240 5 1240 47 -175 c25 -96 94
-353 153 -570 59 -217 162 -602 230 -855 68 -253 149 -556 181 -673 l57 -212
516 2 516 3 3 2278 2 2277 -400 0 -400 0 0 -1227 c0 -675 -4 -1223 -8 -1217
-5 5 -32 95 -60 199 -28 105 -141 521 -252 925 -111 404 -235 859 -276 1010
-41 151 -77 283 -80 293 -5 16 -38 17 -520 17 l-514 0 0 -2280z"/>
<path d="M10750 5231 c5 -11 15 -23 20 -26 6 -4 103 -6 216 -5 143 0 210 -3
220 -11 12 -10 14 -356 14 -2320 l0 -2309 1419 0 1419 0 5 22 c4 12 5 23 4 25
-2 1 -632 6 -1400 9 l-1397 7 0 2314 0 2313 -265 0 c-260 0 -265 0 -255 -19z"/>
<path d="M12410 5225 l0 -25 579 0 c564 0 580 -1 594 -20 11 -16 8 -60 -25
-317 -21 -164 -44 -352 -52 -418 -8 -66 -33 -262 -55 -435 -22 -173 -79 -621
-126 -995 -47 -374 -99 -783 -115 -910 -16 -126 -30 -246 -32 -265 -2 -25 -9
-38 -25 -45 l-23 -10 0 -284 c0 -156 3 -282 6 -279 3 4 18 109 34 235 164
1297 222 1753 390 3088 44 352 83 655 86 673 l6 32 -621 0 -621 0 0 -25z"/>
<path d="M16983 5233 c-13 -8 -23 -19 -23 -24 0 -5 89 -9 198 -9 141 0 201 -3
210 -12 9 -9 12 -175 12 -687 0 -603 -2 -676 -16 -692 -15 -16 -13 -27 16
-136 17 -65 35 -127 40 -138 5 -11 9 357 9 848 l1 867 -212 -1 c-177 0 -217
-3 -235 -16z"/>
<path d="M12417 5058 c-16 -12 -17 -94 -15 -1553 l3 -1540 354 -3 c375 -2 371
-2 371 -49 0 -13 5 -23 10 -23 6 0 10 7 10 15 0 8 4 23 10 33 5 9 25 148 45
307 19 160 78 628 130 1040 198 1568 219 1740 212 1758 -6 16 -41 17 -539 17
-293 0 -542 3 -553 6 -11 3 -28 -1 -38 -8z m1113 -40 c0 -11 -38 -323 -85
-692 -46 -369 -116 -921 -155 -1226 -38 -305 -87 -690 -107 -855 -21 -165 -39
-292 -41 -282 -3 16 -30 17 -363 17 l-359 0 0 1529 c0 1009 3 1530 10 1533 5
2 255 2 555 0 l545 -2 0 -22z"/>
<path d="M17145 5063 c-77 -2 -143 -7 -148 -12 -11 -11 291 -1123 309 -1137 8
-6 14 -17 15 -25 1 -8 5 -3 9 11 4 14 8 278 9 587 1 546 0 563 -18 573 -11 5
-23 9 -28 8 -4 -1 -71 -4 -148 -5z m174 -582 c0 -345 -4 -545 -10 -526 -5 17
-73 266 -152 555 l-144 525 141 5 c78 3 147 3 154 1 9 -2 12 -122 11 -560z"/>
<path d="M10892 5051 c2 -5 64 -88 138 -184 l135 -174 3 170 c1 94 0 177 -2
184 -4 10 -40 13 -142 13 -76 0 -134 -4 -132 -9z"/>
<path d="M15175 5051 c-3 -6 13 -158 35 -338 22 -180 81 -654 131 -1053 49
-399 86 -726 82 -727 -47 -16 -78 -41 -81 -65 -2 -20 -10 -28 -32 -33 -33 -7
-54 -29 -47 -48 3 -7 48 -32 100 -56 l94 -43 11 -66 c6 -37 34 -256 62 -487
28 -231 56 -429 61 -440 5 -11 13 -40 18 -65 18 -103 22 246 19 1805 l-3 1620
-222 3 c-138 1 -224 -1 -228 -7z m434 -1678 c-1 -918 -3 -1659 -5 -1648 -2 11
-27 202 -54 425 -28 223 -55 438 -62 479 l-11 73 -101 48 c-63 30 -95 50 -86
54 8 3 27 10 43 15 20 8 27 17 27 36 0 21 8 29 45 45 27 12 45 26 45 36 0 9
-43 361 -95 783 -53 421 -109 876 -126 1011 -16 135 -32 260 -35 278 l-6 32
211 0 211 0 -1 -1667z"/>
<path d="M8853 4621 l-23 -30 0 -748 0 -748 173 -62 c94 -33 183 -64 197 -68
14 -4 33 -14 42 -22 15 -14 23 -13 72 8 31 12 53 25 50 28 -3 3 -112 45 -242
92 l-237 85 -5 748 -5 748 -22 -31z"/>
<path d="M9940 4135 c0 -22 4 -25 33 -25 18 0 38 -5 45 -12 9 -9 12 -113 12
-405 0 -308 3 -393 13 -393 6 0 163 29 347 65 184 36 403 79 487 95 83 17 154
30 157 30 3 0 6 7 6 15 0 8 -4 15 -9 15 -9 0 -113 -20 -680 -130 -139 -28
-257 -50 -262 -50 -5 0 -9 177 -9 410 l0 410 -70 0 c-68 0 -70 -1 -70 -25z"/>
<path d="M9945 3958 c-3 -7 -4 -499 -3 -1093 3 -1072 3 -1080 23 -1080 20 0
20 8 23 365 1 223 6 368 12 374 6 6 10 27 10 47 0 36 2 38 43 46 39 8 42 11
45 45 l3 36 157 30 c736 143 899 176 910 184 9 8 12 71 10 272 l-3 261 -40 -3
c-49 -4 -65 -17 -65 -52 l0 -28 -297 -57 c-164 -32 -406 -79 -538 -105 l-240
-47 -5 406 c-5 376 -6 406 -23 409 -9 2 -19 -2 -22 -10z m33 -820 c7 -7 437
72 947 175 l160 32 5 35 c4 29 10 35 38 41 l32 7 -2 -252 -3 -251 -210 -41
c-115 -23 -357 -70 -537 -105 l-328 -63 0 -37 c0 -36 -1 -37 -45 -43 l-45 -7
0 -43 c0 -23 -4 -46 -10 -52 -6 -6 -11 -152 -13 -374 -1 -201 -2 121 -2 715 0
594 1 898 2 675 2 -222 7 -408 11 -412z"/>
<path d="M15182 2932 c-74 -30 -109 -49 -102 -56 6 -6 16 -4 27 6 10 9 54 31
98 48 44 17 84 36 90 41 12 12 15 13 -113 -39z"/>
<path d="M8848 2669 c-17 -9 -18 -55 -18 -738 l0 -729 238 -320 237 -321 628
-1 629 0 19 22 c10 13 18 26 19 31 0 4 -276 7 -614 7 l-613 0 -246 331 -246
332 0 696 c-1 383 -4 697 -9 698 -4 1 -15 -2 -24 -8z"/>
<path d="M10030 2200 l0 -400 25 0 25 0 0 400 0 400 -25 0 -25 0 0 -400z"/>
<path d="M16710 2284 c0 -184 1 -190 22 -199 16 -8 26 -30 43 -100 13 -49 48
-184 80 -300 31 -115 63 -232 70 -260 7 -27 23 -84 34 -125 11 -41 31 -118 45
-170 14 -52 54 -201 89 -330 l63 -235 567 -3 567 -2 0 25 0 25 -535 0 -534 0
-15 53 c-16 58 -74 270 -105 387 -11 41 -74 278 -141 525 -67 248 -148 548
-180 669 -32 120 -61 221 -64 224 -3 3 -6 -80 -6 -184z"/>
<path d="M14260 1325 c0 -25 1 -25 89 -25 64 0 92 -4 100 -14 10 -12 43 -320
66 -633 l8 -93 1028 0 1029 0 0 25 0 25 -1005 0 -1005 0 0 53 c1 28 -12 195
-27 370 l-27 317 -128 0 -128 0 0 -25z"/>
<path d="M5575 9613 c-219 -285 -229 -300 -236 -353 -4 -30 -8 -847 -8 -1815
l-1 -1760 215 -289 c118 -159 215 -292 215 -295 0 -4 -54 -47 -120 -95 -216
-157 -258 -194 -286 -252 -27 -55 -97 -127 -221 -229 -74 -60 -93 -91 -93
-151 0 -27 -3 -31 -20 -27 -51 13 -123 -54 -101 -95 6 -12 5 -25 -5 -42 -19
-36 -17 -57 9 -76 l23 -18 -85 -79 c-115 -106 -158 -137 -193 -137 -31 0 -68
-30 -69 -57 0 -10 -3 -34 -5 -53 -12 -86 -9 -128 11 -150 69 -77 253 -102 362
-49 131 64 303 295 303 409 0 37 2 40 40 50 40 11 80 1 80 -20 0 -13 54 -40
80 -40 36 0 70 44 70 90 l0 41 153 -7 c184 -8 214 -1 258 59 16 22 41 77 56
121 22 68 26 98 26 186 0 70 -6 120 -17 150 -8 25 -16 51 -16 58 0 17 108 175
155 226 26 28 39 36 47 28 25 -25 39 -128 50 -363 13 -292 8 -320 -59 -354
-73 -37 -96 -68 -119 -160 -7 -27 -31 -99 -54 -160 -55 -142 -74 -284 -45
-328 30 -46 91 -73 298 -132 217 -61 309 -98 347 -139 20 -22 25 -40 28 -96 4
-68 4 -70 -19 -70 -38 -1 -99 -33 -187 -98 -44 -33 -103 -68 -129 -78 -59 -22
-65 -30 -58 -76 3 -20 1 -40 -5 -43 -16 -10 -12 -63 9 -103 10 -21 56 -70 100
-111 123 -111 157 -193 170 -415 6 -102 11 -130 31 -169 37 -70 153 -199 256
-286 211 -176 338 -216 551 -176 238 45 435 160 499 291 25 51 26 61 20 142
-9 122 -49 310 -80 379 -15 32 -45 88 -68 125 -22 38 -59 114 -83 170 -59 143
-84 191 -152 286 -118 164 -248 276 -353 303 -48 12 -60 22 -41 33 5 4 56 11
113 16 56 6 141 17 188 26 162 30 188 59 174 190 -5 44 -9 84 -9 91 0 6 29 26
65 45 90 47 134 125 95 168 -12 14 -13 23 -5 45 10 26 7 31 -34 69 -24 22 -55
64 -70 93 -43 86 -114 123 -281 147 -60 9 -124 19 -141 21 l-31 5 -6 133 c-3
72 -13 163 -21 200 -16 73 -91 241 -131 293 -14 18 -25 41 -25 52 0 35 -29
117 -59 164 -29 46 -29 46 -8 52 40 11 80 6 99 -11 24 -22 13 -35 257 277
l201 255 -4 1780 c-1 1010 -7 1801 -12 1828 -8 40 -45 96 -233 352 l-225 305
-601 0 -601 0 -229 -297z m1563 -295 l222 -361 0 -1607 0 -1607 -161 -234
c-89 -129 -165 -238 -170 -243 -4 -5 -46 27 -94 72 -48 45 -90 82 -95 82 -4 0
-16 17 -26 38 -18 34 -19 77 -25 557 -5 441 -12 605 -42 1080 -20 308 -39 589
-42 625 -8 80 -33 294 -40 337 -5 29 0 39 39 81 25 27 55 70 67 97 27 62 35
178 19 286 -13 95 -31 143 -64 179 -22 24 -31 55 -41 144 -7 60 -49 97 -128
111 -47 9 -51 16 -32 61 8 20 18 62 20 93 3 31 11 95 17 143 9 72 8 107 -7
210 -9 68 -23 137 -30 154 -17 42 -64 57 -161 52 -103 -5 -111 -14 -130 -154
-21 -151 -20 -147 -54 -168 -27 -15 -31 -23 -29 -54 2 -21 -3 -47 -9 -59 -24
-45 -3 -99 52 -131 36 -21 96 -95 96 -118 0 -7 -42 -41 -92 -76 -51 -35 -98
-75 -105 -89 -30 -63 -43 -312 -23 -451 5 -37 35 -136 66 -220 l56 -153 9
-192 c5 -106 8 -468 7 -806 -3 -576 -4 -615 -21 -641 -13 -19 -22 -25 -29 -18
-20 20 -69 344 -78 512 -8 151 -33 361 -46 381 -2 4 9 35 26 68 28 56 30 69
30 163 0 114 -24 452 -41 568 -22 160 -115 270 -271 323 -15 5 -18 20 -18 89
-1 137 -23 276 -49 301 -42 42 -137 18 -159 -41 -31 -82 -32 -211 -2 -276 12
-28 25 -73 29 -100 4 -28 15 -66 25 -84 16 -32 16 -33 -10 -78 -40 -68 -41
-95 -20 -469 8 -143 18 -354 22 -469 7 -209 7 -209 34 -236 24 -25 28 -38 34
-121 26 -358 58 -564 116 -750 31 -101 70 -314 70 -389 0 -25 12 -88 25 -140
20 -76 26 -121 27 -223 0 -76 -3 -132 -9 -138 -7 -7 -47 40 -124 148 -62 87
-148 207 -191 266 l-78 109 0 1668 0 1668 72 109 c39 59 127 192 194 296 l123
187 513 0 513 -1 223 -361z m-661 290 c13 -17 37 -184 29 -204 -3 -8 -10 -65
-16 -126 -10 -107 -32 -180 -64 -218 -19 -21 -27 -76 -17 -103 8 -20 21 -26
82 -36 89 -14 138 -36 144 -65 3 -11 4 -49 2 -83 -2 -61 -2 -62 39 -97 53 -45
69 -98 61 -205 -6 -91 -30 -148 -88 -204 -21 -21 -41 -48 -45 -61 -3 -14 4
-97 15 -186 12 -89 28 -262 36 -383 61 -913 68 -1053 75 -1572 9 -652 0 -610
145 -732 l50 -42 -42 -1 c-55 0 -89 -14 -96 -39 -6 -26 34 -113 83 -177 40
-51 62 -100 74 -167 4 -21 18 -54 32 -75 39 -57 102 -194 119 -258 18 -71 19
-210 2 -285 -8 -31 -10 -65 -6 -77 9 -23 6 -22 194 -47 215 -28 268 -54 311
-151 14 -31 36 -61 56 -75 18 -12 35 -24 37 -25 14 -11 -40 -59 -99 -89 -82
-41 -87 -52 -71 -154 15 -97 14 -108 -12 -125 -27 -18 -162 -42 -317 -56 -145
-13 -150 -17 -150 -136 0 -74 2 -84 22 -98 12 -9 34 -16 48 -16 40 0 141 -53
198 -105 60 -54 161 -180 215 -270 20 -33 59 -114 85 -180 27 -66 72 -157 100
-203 58 -96 85 -170 107 -296 21 -122 19 -143 -15 -202 -77 -135 -337 -248
-571 -249 -93 0 -98 1 -182 43 -105 52 -208 133 -317 250 -125 132 -133 150
-141 306 -13 230 -75 367 -205 456 -38 27 -84 84 -84 106 0 5 22 19 48 31 26
12 79 46 118 74 103 78 125 89 172 89 74 0 82 9 82 98 0 108 -17 213 -39 242
-46 63 -146 106 -416 181 -153 42 -211 65 -234 93 -20 24 -10 75 43 214 25 68
46 131 46 140 0 8 9 34 20 57 15 31 32 47 61 60 22 10 51 31 64 47 29 34 56
149 58 244 3 119 -22 477 -36 530 -36 131 -95 148 -181 53 -66 -73 -196 -270
-196 -296 0 -12 13 -44 30 -69 16 -26 32 -62 36 -80 8 -41 -18 -178 -46 -242
-38 -88 -36 -87 -245 -84 -213 4 -222 1 -211 -74 3 -25 1 -46 -5 -49 -5 -4
-28 9 -49 29 -22 20 -50 36 -63 36 -31 0 -128 -27 -140 -39 -6 -6 -9 -32 -8
-59 2 -71 -52 -175 -142 -269 -96 -101 -144 -128 -227 -128 -76 0 -150 19
-179 46 -23 22 -28 68 -8 73 81 24 113 44 211 135 58 54 120 104 138 111 57
21 63 26 66 62 3 39 -26 83 -72 108 -40 21 -26 35 35 35 l54 0 5 69 5 68 130
112 c93 79 136 124 153 156 12 25 31 57 42 72 17 24 272 221 352 272 l26 17 0
-43 c-1 -62 25 -108 61 -108 16 0 34 7 42 16 7 8 56 44 110 80 97 63 172 136
182 175 3 13 -2 28 -14 40 -17 17 -31 19 -112 17 -84 -3 -94 -1 -109 18 -17
20 -17 25 -2 65 12 35 15 70 10 169 -3 85 -2 115 4 95 5 -16 17 -36 27 -42 19
-14 71 -17 90 -5 17 11 77 144 98 217 25 83 15 232 -21 341 -53 158 -175 449
-195 466 -34 29 -61 10 -82 -58 -16 -51 -18 -80 -13 -209 3 -82 8 -172 11
-200 l4 -50 -9 43 c-5 24 -23 87 -40 141 -50 162 -68 265 -95 546 -33 351 -34
359 -62 363 -23 3 -23 6 -24 145 0 78 -2 153 -4 167 -1 14 -5 93 -9 175 -4 83
-9 210 -12 284 -3 74 -10 146 -15 159 -7 19 -4 34 16 68 14 23 26 55 27 69 2
18 10 30 24 36 27 10 43 36 37 60 -5 18 -3 18 48 3 68 -20 109 -45 148 -90 65
-73 73 -101 92 -334 10 -118 19 -260 19 -314 0 -95 -2 -102 -35 -163 -39 -71
-41 -85 -21 -134 22 -54 35 -160 46 -364 5 -104 14 -206 20 -225 6 -19 17 -78
25 -130 29 -183 37 -218 56 -239 48 -51 107 -9 133 94 14 57 16 149 15 778 -1
391 -5 759 -9 817 -7 92 -15 124 -63 257 -61 167 -77 250 -77 402 0 136 5 147
102 211 118 79 158 117 158 150 0 61 -67 162 -166 249 l-27 23 30 24 c42 32
63 92 70 193 3 47 10 92 16 99 6 8 37 12 87 12 50 0 81 -4 87 -12z m-798 -902
c8 -9 14 -79 18 -191 l6 -177 -21 11 c-29 15 -38 36 -45 98 -3 28 -16 71 -28
94 -30 61 -30 136 0 160 28 23 54 24 70 5z m284 -2305 c3 -14 0 -17 -14 -14
-20 5 -24 15 -12 26 11 12 21 8 26 -12z m57 -195 c102 -261 110 -288 110 -388
0 -78 -4 -98 -32 -163 -56 -131 -72 -115 -109 106 -41 246 -59 392 -59 474 0
83 10 149 20 138 4 -4 35 -80 70 -167z m19 4 c0 -10 -3 -8 -9 5 -12 27 -12 43
0 25 5 -8 9 -22 9 -30z m-138 -251 c-6 -24 -9 -28 -10 -12 -1 24 9 56 16 50 2
-3 0 -20 -6 -38z m10 -79 l-9 -45 -1 37 c-1 20 2 44 6 54 11 29 14 2 4 -46z
m16 -22 c-3 -8 -6 -5 -6 6 -1 11 2 17 5 13 3 -3 4 -12 1 -19z m10 -70 c-3 -8
-6 -5 -6 6 -1 11 2 17 5 13 3 -3 4 -12 1 -19z m-20 -20 c-3 -8 -6 -5 -6 6 -1
11 2 17 5 13 3 -3 4 -12 1 -19z m30 -40 c-3 -8 -6 -5 -6 6 -1 11 2 17 5 13 3
-3 4 -12 1 -19z m-10 -40 c-3 -8 -6 -5 -6 6 -1 11 2 17 5 13 3 -3 4 -12 1 -19z
m14 -35 c-8 -15 -10 -15 -11 -2 0 17 10 32 18 25 2 -3 -1 -13 -7 -23z m1041
-410 c-12 -2 -20 -9 -17 -14 4 -5 2 -9 -4 -9 -13 0 -22 15 -14 24 3 3 18 5 32
5 24 -2 24 -2 3 -6z m-1137 -52 c-3 -5 1 -11 10 -13 10 -2 12 -7 5 -18 -9 -13
-11 -13 -20 0 -13 20 -13 40 1 40 5 0 8 -4 4 -9z m195 -111 c0 -5 -4 -10 -9
-10 -5 0 -27 -17 -49 -37 -76 -70 -106 -93 -124 -93 -30 0 -21 14 51 83 55 53
75 67 100 67 17 0 31 -4 31 -10z"/>
<path d="M6460 7224 c-47 -40 -60 -75 -71 -196 -10 -114 -22 -206 -84 -623
-37 -255 -41 -340 -25 -506 23 -221 70 -403 127 -486 27 -39 36 -63 36 -93 0
-23 -4 -45 -9 -50 -5 -4 -31 -11 -59 -15 -27 -3 -54 -10 -59 -15 -27 -27 16
-180 75 -268 23 -36 68 -82 107 -113 80 -61 115 -100 142 -156 17 -36 25 -43
49 -43 37 0 46 13 60 80 9 43 8 82 -4 180 -8 69 -15 144 -15 168 0 59 -21 102
-69 147 -23 21 -41 42 -41 48 0 5 -11 22 -25 39 -31 37 -32 79 -4 168 11 36
24 117 30 180 17 200 23 818 10 1025 -13 201 -46 491 -61 531 -13 34 -68 33
-110 -2z m78 -126 c5 -7 12 -58 15 -113 7 -113 3 -109 -13 18 -11 81 -14 87
-36 87 -25 0 -50 -40 -57 -95 -3 -24 -4 -22 -6 11 -1 34 5 48 28 73 31 33 52
39 69 19z m-9 -97 c44 -300 61 -791 42 -1196 -9 -184 -17 -268 -31 -320 -10
-38 -22 -103 -26 -142 -7 -77 -24 -91 -24 -20 0 43 -2 48 -63 159 -38 69 -48
106 -77 288 -27 164 -24 244 15 515 63 430 74 508 85 625 19 183 59 230 79 91z
m-3 -1759 c-11 -10 -12 3 -7 53 l6 50 3 -49 c2 -26 1 -51 -2 -54z m-29 -29
c-3 -10 -5 -2 -5 17 0 19 2 27 5 18 2 -10 2 -26 0 -35z m73 -66 c0 -6 21 -29
47 -53 l46 -43 8 -98 c4 -54 10 -129 14 -168 l7 -70 -30 46 c-16 25 -53 66
-82 90 -113 94 -138 121 -168 178 -18 32 -29 61 -25 65 3 3 17 6 30 6 34 0 80
49 88 93 l7 37 29 -36 c16 -20 29 -41 29 -47z"/>
</g>
</svg>
