<?xml version="1.0" encoding="UTF-8"?>
<!DOCTYPE svg PUBLIC "-//W3C//DTD SVG 1.1//EN" "http://www.w3.org/Graphics/SVG/1.1/DTD/svg11.dtd">
<svg xmlns="http://www.w3.org/2000/svg" version="1.1" width="512px" height="512px" style="shape-rendering:geometricPrecision; text-rendering:geometricPrecision; image-rendering:optimizeQuality; fill-rule:evenodd; clip-rule:evenodd" xmlns:xlink="http://www.w3.org/1999/xlink">
<g><path style="opacity:0.989" fill="#000002" d="M 233.5,-0.5 C 248.5,-0.5 263.5,-0.5 278.5,-0.5C 377.338,12.3234 448.172,63.6567 491,153.5C 501.775,178.938 508.609,205.272 511.5,232.5C 511.5,247.5 511.5,262.5 511.5,277.5C 498.416,381.41 443.75,453.91 347.5,495C 324.709,503.366 301.376,508.866 277.5,511.5C 262.833,511.5 248.167,511.5 233.5,511.5C 129.59,498.416 57.0904,443.75 16,347.5C 7.63383,324.709 2.13383,301.376 -0.5,277.5C -0.5,262.833 -0.5,248.167 -0.5,233.5C 12.5837,129.59 67.2503,57.0904 163.5,16C 186.291,7.63383 209.624,2.13383 233.5,-0.5 Z M 117.5,112.5 C 136.899,116.464 155.899,121.964 174.5,129C 177.433,131.264 179.6,134.098 181,137.5C 182.076,147.126 183.576,156.626 185.5,166C 254.175,173.594 322.842,181.26 391.5,189C 401.597,191.692 405.763,198.192 404,208.5C 399.87,233.612 395.204,258.612 390,283.5C 387.736,286.433 384.902,288.6 381.5,290C 318.834,290.5 256.168,290.667 193.5,290.5C 192.066,297.772 191.066,305.105 190.5,312.5C 249.834,312.333 309.168,312.5 368.5,313C 378.596,317.031 381.763,324.197 378,334.5C 374.896,339.469 370.396,341.969 364.5,342C 300.167,342.667 235.833,342.667 171.5,342C 162.762,340.432 158.095,335.265 157.5,326.5C 159.778,310.442 162.445,294.442 165.5,278.5C 161.034,236.507 156.701,194.507 152.5,152.5C 140.768,149.312 129.102,145.812 117.5,142C 106.149,136.612 103.649,128.445 110,117.5C 112.426,115.548 114.926,113.881 117.5,112.5 Z M 192.5,351.5 C 214.083,353.241 222.25,364.575 217,385.5C 208.408,398.804 196.908,401.971 182.5,395C 172.241,386.439 169.741,375.939 175,363.5C 179.39,357.258 185.223,353.258 192.5,351.5 Z M 333.5,351.5 C 352.668,352.497 361.168,362.497 359,381.5C 351.858,397.995 340.024,402.495 323.5,395C 312.059,384.504 310.559,372.671 319,359.5C 323.119,355.361 327.952,352.694 333.5,351.5 Z"/></g>
</svg>
