<?xml version="1.0" encoding="UTF-8"?>
<svg xmlns="http://www.w3.org/2000/svg" xmlns:xlink="http://www.w3.org/1999/xlink" width="20px" height="20px" viewBox="0 0 20 20" version="1.1">
<defs>
<filter id="alpha" filterUnits="objectBoundingBox" x="0%" y="0%" width="100%" height="100%">
  <feColorMatrix type="matrix" in="SourceGraphic" values="0 0 0 0 1 0 0 0 0 1 0 0 0 0 1 0 0 0 1 0"/>
</filter>
<mask id="mask0">
  <g filter="url(#alpha)">
<rect x="0" y="0" width="20" height="20" style="fill:rgb(0%,0%,0%);fill-opacity:0.952941;stroke:none;"/>
  </g>
</mask>
<clipPath id="clip1">
  <rect x="0" y="0" width="20" height="20"/>
</clipPath>
<g id="surface5" clip-path="url(#clip1)">
<path style=" stroke:none;fill-rule:evenodd;fill:rgb(76.470588%,97.647059%,0%);fill-opacity:1;" d="M 9.101562 -0.0195312 C 9.6875 -0.0195312 10.273438 -0.0195312 10.859375 -0.0195312 C 14.675781 0.457031 17.429688 2.417969 19.121094 5.859375 C 19.574219 6.898438 19.863281 7.980469 19.980469 9.101562 C 19.980469 9.6875 19.980469 10.273438 19.980469 10.859375 C 19.503906 14.675781 17.542969 17.429688 14.101562 19.121094 C 13.058594 19.578125 11.980469 19.863281 10.859375 19.980469 C 10.273438 19.980469 9.6875 19.980469 9.101562 19.980469 C 5.285156 19.503906 2.53125 17.542969 0.839844 14.101562 C 0.382812 13.058594 0.0976562 11.980469 -0.0195312 10.859375 C -0.0195312 10.273438 -0.0195312 9.6875 -0.0195312 9.101562 C 0.457031 5.285156 2.417969 2.53125 5.859375 0.839844 C 6.898438 0.382812 7.980469 0.0976562 9.101562 -0.0195312 Z M 9.101562 -0.0195312 "/>
</g>
</defs>
<g id="surface1">
<use xlink:href="#surface5" mask="url(#mask0)"/>
<path style=" stroke:none;fill-rule:evenodd;fill:green;fill-opacity:1;" d="M 9.300781 0.261719 C 13.300781 0.167969 16.347656 1.808594 18.441406 5.179688 C 20.101562 8.347656 20.117188 11.519531 18.480469 14.699219 C 16.8125 17.539062 14.339844 19.183594 11.058594 19.640625 C 7.277344 19.925781 4.257812 18.558594 2 15.539062 C 0.109375 12.652344 -0.234375 9.585938 0.960938 6.339844 C 2.585938 2.738281 5.367188 0.710938 9.300781 0.261719 Z M 9.300781 0.261719 "/>
<!-- <path style=" stroke:none;fill-rule:evenodd;fill:rgb(0.784314%,0.784314%,0%);fill-opacity:1;" d="M 9.300781 0.261719 C 13.300781 0.167969 16.347656 1.808594 18.441406 5.179688 C 20.101562 8.347656 20.117188 11.519531 18.480469 14.699219 C 16.8125 17.539062 14.339844 19.183594 11.058594 19.640625 C 7.277344 19.925781 4.257812 18.558594 2 15.539062 C 0.109375 12.652344 -0.234375 9.585938 0.960938 6.339844 C 2.585938 2.738281 5.367188 0.710938 9.300781 0.261719 Z M 9.300781 0.261719 "/> -->
<path style=" stroke:none;fill-rule:evenodd;fill:rgb(83.529412%,90.980392%,0%);fill-opacity:1;" d="M 7.660156 1.058594 C 7.796875 1.035156 7.914062 1.074219 8 1.179688 C 8.054688 1.410156 8.113281 1.636719 8.179688 1.859375 C 8.148438 1.925781 8.09375 1.949219 8.019531 1.941406 C 7.980469 1.738281 7.933594 1.539062 7.878906 1.339844 C 7.84375 1.164062 7.796875 1.148438 7.738281 1.300781 C 7.78125 1.515625 7.835938 1.730469 7.898438 1.941406 C 7.84375 2.015625 7.789062 2.023438 7.738281 1.960938 C 7.65625 1.675781 7.589844 1.390625 7.539062 1.101562 C 7.589844 1.109375 7.632812 1.097656 7.660156 1.058594 Z M 7.660156 1.058594 "/>
<path style=" stroke:none;fill-rule:evenodd;fill:rgb(82.352941%,89.803922%,0%);fill-opacity:1;" d="M 10.5 0.78125 C 10.554688 0.78125 10.605469 0.78125 10.660156 0.78125 C 10.660156 1.046875 10.644531 1.3125 10.621094 1.578125 C 10.6875 1.578125 10.753906 1.578125 10.820312 1.578125 C 10.820312 1.632812 10.820312 1.6875 10.820312 1.738281 C 10.691406 1.757812 10.578125 1.734375 10.480469 1.660156 C 10.476562 1.367188 10.484375 1.074219 10.5 0.78125 Z M 10.5 0.78125 "/>
<path style=" stroke:none;fill-rule:evenodd;fill:rgb(84.705882%,92.156863%,0%);fill-opacity:1;" d="M 12.019531 1.019531 C 12.195312 1 12.289062 1.074219 12.300781 1.238281 C 12.25 1.488281 12.195312 1.734375 12.140625 1.980469 C 12.082031 1.992188 12.027344 1.976562 11.980469 1.941406 C 12.019531 1.835938 12.046875 1.730469 12.058594 1.621094 C 12.011719 1.609375 11.972656 1.625 11.941406 1.660156 C 11.90625 1.738281 11.894531 1.816406 11.898438 1.898438 C 11.847656 1.898438 11.792969 1.898438 11.738281 1.898438 C 11.773438 1.582031 11.867188 1.289062 12.019531 1.019531 Z M 12.019531 1.019531 "/>
<path style=" stroke:none;fill-rule:evenodd;fill:rgb(6.27451%,6.27451%,0.784314%);fill-opacity:1;" d="M 12.058594 1.179688 C 12.105469 1.191406 12.132812 1.226562 12.140625 1.28125 C 12.144531 1.414062 12.09375 1.460938 11.980469 1.421875 C 12.007812 1.339844 12.035156 1.257812 12.058594 1.179688 Z M 12.058594 1.179688 "/>
<path style=" stroke:none;fill-rule:evenodd;fill:rgb(80.784314%,87.843137%,0%);fill-opacity:1;" d="M 9.140625 0.78125 C 9.28125 0.753906 9.386719 0.800781 9.460938 0.921875 C 9.4375 0.953125 9.402344 0.976562 9.359375 0.980469 C 9.300781 0.953125 9.242188 0.941406 9.179688 0.941406 C 9.207031 1.152344 9.222656 1.367188 9.21875 1.578125 C 9.3125 1.558594 9.40625 1.546875 9.5 1.539062 C 9.492188 1.675781 9.421875 1.742188 9.28125 1.738281 C 9.1875 1.742188 9.121094 1.699219 9.078125 1.621094 C 9.050781 1.378906 9.035156 1.140625 9.039062 0.898438 C 9.082031 0.863281 9.113281 0.824219 9.140625 0.78125 Z M 9.140625 0.78125 "/>
<path style=" stroke:none;fill-rule:evenodd;fill:rgb(85.490196%,92.941176%,0%);fill-opacity:1;" d="M 6.421875 1.460938 C 6.460938 1.457031 6.492188 1.46875 6.519531 1.5 C 6.617188 1.652344 6.636719 1.8125 6.578125 1.980469 C 6.628906 2.109375 6.679688 2.234375 6.738281 2.359375 C 6.683594 2.410156 6.632812 2.417969 6.578125 2.378906 C 6.53125 2.273438 6.484375 2.167969 6.441406 2.058594 C 6.257812 1.980469 6.144531 1.839844 6.101562 1.640625 C 6.125 1.605469 6.15625 1.585938 6.199219 1.578125 C 6.273438 1.644531 6.320312 1.722656 6.339844 1.820312 C 6.371094 1.855469 6.414062 1.867188 6.460938 1.859375 C 6.460938 1.753906 6.433594 1.652344 6.378906 1.558594 C 6.390625 1.523438 6.402344 1.492188 6.421875 1.460938 Z M 6.421875 1.460938 "/>
<path style=" stroke:none;fill-rule:evenodd;fill:rgb(84.313725%,92.156863%,0%);fill-opacity:1;" d="M 13.339844 1.460938 C 13.4375 1.460938 13.53125 1.480469 13.621094 1.519531 C 13.679688 1.570312 13.707031 1.636719 13.699219 1.71875 C 13.632812 1.980469 13.53125 2.226562 13.398438 2.460938 C 13.355469 2.441406 13.320312 2.40625 13.300781 2.359375 C 13.390625 2.136719 13.484375 1.917969 13.578125 1.699219 C 13.546875 1.621094 13.5 1.605469 13.441406 1.660156 C 13.351562 1.890625 13.25 2.117188 13.140625 2.339844 C 13.09375 2.324219 13.054688 2.296875 13.019531 2.261719 C 13.148438 2 13.257812 1.734375 13.339844 1.460938 Z M 13.339844 1.460938 "/>
<path style=" stroke:none;fill-rule:evenodd;fill:rgb(84.313725%,91.764706%,0%);fill-opacity:1;" d="M 14.738281 2.101562 C 14.898438 2.179688 15.046875 2.28125 15.179688 2.398438 C 15.15625 2.4375 15.132812 2.46875 15.101562 2.5 C 15.054688 2.445312 15 2.425781 14.941406 2.441406 C 14.804688 2.648438 14.664062 2.855469 14.519531 3.058594 C 14.484375 3.039062 14.449219 3.011719 14.421875 2.980469 C 14.554688 2.765625 14.6875 2.554688 14.820312 2.339844 C 14.789062 2.292969 14.75 2.25 14.699219 2.21875 C 14.726562 2.183594 14.738281 2.144531 14.738281 2.101562 Z M 14.738281 2.101562 "/>
<path style=" stroke:none;fill-rule:evenodd;fill:rgb(83.137255%,94.117647%,0%);fill-opacity:1;" d="M 9.261719 2.378906 C 12.464844 2.246094 14.910156 3.523438 16.601562 6.21875 C 17.890625 8.691406 17.90625 11.171875 16.640625 13.660156 C 14.964844 16.414062 12.503906 17.714844 9.261719 17.558594 C 6.382812 17.183594 4.308594 15.699219 3.039062 13.101562 C 1.894531 10.28125 2.226562 7.652344 4.039062 5.21875 C 5.40625 3.585938 7.144531 2.640625 9.261719 2.378906 Z M 9.261719 2.378906 "/>
<!-- <path style=" stroke:none;fill-rule:evenodd;fill:rgb(0%,0%,0%);fill-opacity:1;" d="M 9.421875 2.621094 C 12.832031 2.5625 15.277344 4.054688 16.761719 7.101562 C 17.632812 9.3125 17.515625 11.472656 16.398438 13.578125 C 15.082031 15.796875 13.128906 17.042969 10.539062 17.320312 C 7.9375 17.441406 5.808594 16.5 4.160156 14.5 C 2.316406 11.882812 2.128906 9.148438 3.601562 6.300781 C 4.941406 4.136719 6.882812 2.910156 9.421875 2.621094 Z M 9.421875 2.621094 "/> -->
<path style=" stroke:none;fill-rule:evenodd;fill:green;fill-opacity:1;" d="M 9.421875 2.621094 C 12.832031 2.5625 15.277344 4.054688 16.761719 7.101562 C 17.632812 9.3125 17.515625 11.472656 16.398438 13.578125 C 15.082031 15.796875 13.128906 17.042969 10.539062 17.320312 C 7.9375 17.441406 5.808594 16.5 4.160156 14.5 C 2.316406 11.882812 2.128906 9.148438 3.601562 6.300781 C 4.941406 4.136719 6.882812 2.910156 9.421875 2.621094 Z M 9.421875 2.621094 "/>
<path style=" stroke:none;fill-rule:evenodd;fill:rgb(83.529412%,90.980392%,0%);fill-opacity:1;" d="M 4.941406 2.261719 C 5.101562 2.453125 5.246094 2.660156 5.378906 2.878906 C 5.445312 2.890625 5.507812 2.871094 5.558594 2.820312 C 5.628906 2.964844 5.574219 3.042969 5.398438 3.058594 C 5.355469 3.054688 5.316406 3.042969 5.28125 3.019531 C 5.140625 2.792969 5 2.566406 4.859375 2.339844 C 4.890625 2.3125 4.917969 2.285156 4.941406 2.261719 Z M 4.941406 2.261719 "/>
<path style=" stroke:none;fill-rule:evenodd;fill:rgb(78.039216%,85.098039%,0%);fill-opacity:1;" d="M 3.941406 3.019531 C 4.011719 3.164062 4.066406 3.324219 4.101562 3.5 C 4.265625 3.5625 4.425781 3.636719 4.578125 3.71875 C 4.535156 3.746094 4.488281 3.765625 4.441406 3.78125 C 4.140625 3.648438 4.105469 3.695312 4.339844 3.921875 C 4.292969 3.984375 4.238281 3.988281 4.179688 3.941406 C 3.984375 3.738281 3.800781 3.53125 3.621094 3.320312 C 3.726562 3.234375 3.8125 3.257812 3.878906 3.378906 C 3.90625 3.296875 3.902344 3.21875 3.859375 3.140625 C 3.886719 3.097656 3.914062 3.058594 3.941406 3.019531 Z M 3.941406 3.019531 "/>
<path style=" stroke:none;fill-rule:evenodd;fill:rgb(81.176471%,88.235294%,0%);fill-opacity:1;" d="M 15.980469 3.140625 C 16.222656 3.121094 16.308594 3.230469 16.238281 3.460938 C 16.09375 3.601562 15.953125 3.746094 15.820312 3.898438 C 15.609375 3.960938 15.507812 3.882812 15.519531 3.660156 C 15.667969 3.480469 15.820312 3.304688 15.980469 3.140625 Z M 15.980469 3.140625 "/>
<path style=" stroke:none;fill-rule:evenodd;fill:rgb(7.058824%,7.058824%,0.784314%);fill-opacity:1;" d="M 16.019531 3.261719 C 16.109375 3.261719 16.140625 3.300781 16.121094 3.378906 C 16.007812 3.53125 15.882812 3.671875 15.738281 3.800781 C 15.652344 3.820312 15.621094 3.785156 15.640625 3.699219 C 15.789062 3.570312 15.917969 3.421875 16.019531 3.261719 Z M 16.019531 3.261719 "/>
<path style=" stroke:none;fill-rule:evenodd;fill:rgb(81.176471%,88.627451%,0%);fill-opacity:1;" d="M 2.859375 4.179688 C 3.105469 4.300781 3.328125 4.460938 3.519531 4.660156 C 3.546875 4.886719 3.445312 4.972656 3.21875 4.921875 C 3.054688 4.78125 2.886719 4.640625 2.71875 4.5 C 2.691406 4.359375 2.738281 4.25 2.859375 4.179688 Z M 2.859375 4.179688 "/>
<path style=" stroke:none;fill-rule:evenodd;fill:rgb(6.27451%,6.27451%,0.784314%);fill-opacity:1;" d="M 2.859375 4.339844 C 3.042969 4.433594 3.207031 4.554688 3.359375 4.699219 C 3.390625 4.746094 3.382812 4.785156 3.339844 4.820312 C 3.214844 4.742188 3.09375 4.65625 2.980469 4.558594 C 2.894531 4.507812 2.855469 4.4375 2.859375 4.339844 Z M 2.859375 4.339844 "/>
<path style=" stroke:none;fill-rule:evenodd;fill:rgb(83.529412%,90.980392%,0%);fill-opacity:1;" d="M 17.058594 4.140625 C 17.117188 4.148438 17.15625 4.183594 17.179688 4.238281 C 17.125 4.308594 17.058594 4.363281 16.980469 4.398438 C 17.101562 4.414062 17.21875 4.425781 17.339844 4.441406 C 17.359375 4.457031 17.371094 4.476562 17.378906 4.5 C 17.21875 4.527344 17.058594 4.554688 16.898438 4.578125 C 16.824219 4.746094 16.738281 4.90625 16.640625 5.058594 C 16.566406 4.925781 16.585938 4.796875 16.699219 4.679688 C 16.671875 4.652344 16.648438 4.652344 16.621094 4.679688 C 16.574219 4.734375 16.519531 4.78125 16.460938 4.820312 C 16.421875 4.808594 16.394531 4.78125 16.378906 4.738281 C 16.601562 4.53125 16.828125 4.332031 17.058594 4.140625 Z M 17.058594 4.140625 "/>
<path style=" stroke:none;fill-rule:evenodd;fill:rgb(85.098039%,92.941176%,0%);fill-opacity:1;" d="M 1.980469 5.421875 C 2.046875 5.414062 2.113281 5.421875 2.179688 5.441406 C 2.375 5.546875 2.570312 5.660156 2.761719 5.78125 C 2.8125 5.949219 2.75 6.054688 2.578125 6.101562 C 2.367188 6.019531 2.167969 5.921875 1.980469 5.800781 C 1.878906 5.675781 1.878906 5.550781 1.980469 5.421875 Z M 1.980469 5.421875 "/>
<path style=" stroke:none;fill-rule:evenodd;fill:rgb(5.490196%,5.490196%,0.392157%);fill-opacity:1;" d="M 2.058594 5.578125 C 2.234375 5.648438 2.410156 5.726562 2.578125 5.820312 C 2.617188 5.851562 2.628906 5.894531 2.621094 5.941406 C 2.421875 5.882812 2.234375 5.796875 2.058594 5.679688 C 2.015625 5.648438 2.015625 5.617188 2.058594 5.578125 Z M 2.058594 5.578125 "/>
<path style=" stroke:none;fill-rule:evenodd;fill:rgb(84.705882%,92.156863%,0%);fill-opacity:1;" d="M 17.941406 5.460938 C 17.980469 5.457031 18.011719 5.46875 18.039062 5.5 C 18.105469 5.585938 18.128906 5.679688 18.121094 5.78125 C 18.046875 5.824219 18 5.796875 17.980469 5.699219 C 17.761719 5.65625 17.707031 5.730469 17.820312 5.921875 C 17.808594 5.933594 17.792969 5.945312 17.78125 5.960938 C 17.691406 5.921875 17.597656 5.894531 17.5 5.878906 C 17.351562 5.933594 17.339844 6.015625 17.460938 6.121094 C 17.410156 6.183594 17.359375 6.191406 17.300781 6.140625 C 17.261719 6.058594 17.21875 5.980469 17.179688 5.898438 C 17.429688 5.742188 17.683594 5.59375 17.941406 5.460938 Z M 17.941406 5.460938 "/>
<path style=" stroke:none;fill-rule:evenodd;fill:rgb(84.313725%,91.764706%,0%);fill-opacity:1;" d="M 1.421875 6.738281 C 1.6875 6.878906 1.964844 6.984375 2.261719 7.058594 C 2.25 7.082031 2.238281 7.101562 2.21875 7.121094 C 2.082031 7.128906 1.949219 7.132812 1.820312 7.140625 C 1.910156 7.1875 2.003906 7.226562 2.101562 7.261719 C 2.152344 7.3125 2.152344 7.367188 2.101562 7.421875 C 1.820312 7.316406 1.542969 7.226562 1.261719 7.140625 C 1.246094 6.980469 1.300781 6.84375 1.421875 6.738281 Z M 1.421875 6.738281 "/>
<path style=" stroke:none;fill-rule:evenodd;fill:rgb(2.745098%,2.745098%,0.392157%);fill-opacity:1;" d="M 1.460938 6.898438 C 1.519531 6.921875 1.582031 6.949219 1.640625 6.980469 C 1.671875 7.027344 1.664062 7.066406 1.621094 7.101562 C 1.554688 7.066406 1.488281 7.035156 1.421875 7 C 1.449219 6.972656 1.464844 6.941406 1.460938 6.898438 Z M 1.460938 6.898438 "/>
<path style=" stroke:none;fill-rule:evenodd;fill:rgb(82.745098%,90.196078%,0%);fill-opacity:1;" d="M 18.460938 6.78125 C 18.511719 6.78125 18.566406 6.78125 18.621094 6.78125 C 18.628906 6.867188 18.652344 6.945312 18.699219 7.019531 C 18.691406 7.125 18.636719 7.199219 18.539062 7.238281 C 18.335938 7.320312 18.128906 7.394531 17.921875 7.460938 C 17.84375 7.425781 17.824219 7.378906 17.859375 7.320312 C 18.101562 7.246094 18.328125 7.144531 18.539062 7.019531 C 18.507812 7.007812 18.472656 6.992188 18.441406 6.980469 C 18.210938 7.066406 17.980469 7.132812 17.738281 7.179688 C 17.734375 7.128906 17.746094 7.082031 17.78125 7.039062 C 18.011719 6.957031 18.238281 6.871094 18.460938 6.78125 Z M 18.460938 6.78125 "/>
<path style=" stroke:none;fill-rule:evenodd;fill:rgb(83.921569%,91.372549%,0%);fill-opacity:1;" d="M 18.621094 8.261719 C 18.75 8.25 18.878906 8.261719 19 8.300781 C 19.09375 8.445312 19.074219 8.5625 18.941406 8.660156 C 18.902344 8.585938 18.886719 8.503906 18.898438 8.421875 C 18.820312 8.421875 18.738281 8.421875 18.660156 8.421875 C 18.691406 8.671875 18.578125 8.792969 18.320312 8.78125 C 18.082031 8.6875 18.046875 8.546875 18.21875 8.359375 C 18.265625 8.34375 18.289062 8.363281 18.300781 8.421875 C 18.277344 8.484375 18.265625 8.550781 18.261719 8.621094 C 18.355469 8.617188 18.449219 8.597656 18.539062 8.558594 C 18.496094 8.503906 18.492188 8.445312 18.519531 8.378906 C 18.5625 8.34375 18.59375 8.304688 18.621094 8.261719 Z M 18.621094 8.261719 "/>
<path style=" stroke:none;fill-rule:evenodd;fill:rgb(85.098039%,92.54902%,0%);fill-opacity:1;" d="M 1.019531 8.179688 C 1.0625 8.183594 1.089844 8.210938 1.101562 8.261719 C 1.078125 8.324219 1.066406 8.390625 1.058594 8.460938 C 1.273438 8.492188 1.484375 8.519531 1.699219 8.539062 C 1.6875 8.457031 1.703125 8.375 1.738281 8.300781 C 1.898438 8.421875 1.898438 8.550781 1.738281 8.679688 C 1.496094 8.683594 1.257812 8.660156 1.019531 8.601562 C 0.863281 8.460938 0.863281 8.320312 1.019531 8.179688 Z M 1.019531 8.179688 "/>
<path style=" stroke:none;fill-rule:evenodd;fill:rgb(82.352941%,89.803922%,0%);fill-opacity:1;" d="M 1.101562 9.21875 C 1.152344 9.21875 1.207031 9.21875 1.261719 9.21875 C 1.261719 9.285156 1.261719 9.351562 1.261719 9.421875 C 1.355469 9.425781 1.449219 9.441406 1.539062 9.460938 C 1.550781 9.53125 1.539062 9.597656 1.5 9.660156 C 1.425781 9.609375 1.347656 9.582031 1.261719 9.578125 C 1.253906 9.675781 1.261719 9.769531 1.28125 9.859375 C 1.574219 9.914062 1.652344 10.074219 1.519531 10.339844 C 1.449219 10.386719 1.375 10.425781 1.300781 10.460938 C 1.261719 10.550781 1.246094 10.644531 1.261719 10.738281 C 1.207031 10.738281 1.152344 10.738281 1.101562 10.738281 C 1.101562 10.648438 1.101562 10.554688 1.101562 10.460938 C 0.992188 10.457031 0.886719 10.445312 0.78125 10.421875 C 0.769531 10.347656 0.78125 10.28125 0.820312 10.21875 C 0.90625 10.277344 1 10.304688 1.101562 10.300781 C 1.113281 10.203125 1.097656 10.109375 1.058594 10.019531 C 0.757812 9.914062 0.703125 9.734375 0.898438 9.480469 C 0.960938 9.441406 1.027344 9.417969 1.101562 9.421875 C 1.101562 9.351562 1.101562 9.285156 1.101562 9.21875 Z M 1.101562 9.21875 "/>
<path style=" stroke:none;fill-rule:evenodd;fill:rgb(82.352941%,89.803922%,0%);fill-opacity:1;" d="M 18.660156 9.21875 C 18.714844 9.21875 18.765625 9.21875 18.820312 9.21875 C 18.820312 9.285156 18.820312 9.351562 18.820312 9.421875 C 18.914062 9.425781 19.007812 9.441406 19.101562 9.460938 C 19.113281 9.53125 19.097656 9.597656 19.058594 9.660156 C 18.988281 9.609375 18.90625 9.582031 18.820312 9.578125 C 18.8125 9.675781 18.820312 9.769531 18.839844 9.859375 C 19.132812 9.914062 19.214844 10.074219 19.078125 10.339844 C 19.011719 10.386719 18.9375 10.425781 18.859375 10.460938 C 18.820312 10.550781 18.808594 10.644531 18.820312 10.738281 C 18.765625 10.738281 18.714844 10.738281 18.660156 10.738281 C 18.660156 10.648438 18.660156 10.554688 18.660156 10.460938 C 18.550781 10.457031 18.445312 10.445312 18.339844 10.421875 C 18.328125 10.347656 18.34375 10.28125 18.378906 10.21875 C 18.464844 10.277344 18.558594 10.304688 18.660156 10.300781 C 18.671875 10.203125 18.660156 10.109375 18.621094 10.019531 C 18.316406 9.914062 18.261719 9.734375 18.460938 9.480469 C 18.519531 9.441406 18.585938 9.417969 18.660156 9.421875 C 18.660156 9.351562 18.660156 9.285156 18.660156 9.21875 Z M 18.660156 9.21875 "/>
<path style=" stroke:none;fill-rule:evenodd;fill:rgb(5.882353%,5.882353%,0.784314%);fill-opacity:1;" d="M 1.019531 9.578125 C 1.066406 9.597656 1.09375 9.640625 1.101562 9.699219 C 1.066406 9.847656 1.015625 9.847656 0.941406 9.699219 C 0.96875 9.660156 0.996094 9.621094 1.019531 9.578125 Z M 1.019531 9.578125 "/>
<path style=" stroke:none;fill-rule:evenodd;fill:rgb(5.882353%,5.882353%,0.784314%);fill-opacity:1;" d="M 18.578125 9.578125 C 18.628906 9.597656 18.65625 9.640625 18.660156 9.699219 C 18.628906 9.847656 18.574219 9.847656 18.5 9.699219 C 18.527344 9.660156 18.554688 9.621094 18.578125 9.578125 Z M 18.578125 9.578125 "/>
<path style=" stroke:none;fill-rule:evenodd;fill:rgb(0.784314%,0.784314%,0%);fill-opacity:1;" d="M 1.261719 10.058594 C 1.339844 10.058594 1.378906 10.097656 1.378906 10.179688 C 1.382812 10.238281 1.355469 10.28125 1.300781 10.300781 C 1.261719 10.222656 1.246094 10.144531 1.261719 10.058594 Z M 1.261719 10.058594 "/>
<path style=" stroke:none;fill-rule:evenodd;fill:rgb(0.784314%,0.784314%,0%);fill-opacity:1;" d="M 18.820312 10.058594 C 18.898438 10.058594 18.9375 10.097656 18.941406 10.179688 C 18.941406 10.238281 18.914062 10.28125 18.859375 10.300781 C 18.820312 10.222656 18.808594 10.144531 18.820312 10.058594 Z M 18.820312 10.058594 "/>
<path style=" stroke:none;fill-rule:evenodd;fill:rgb(84.705882%,92.156863%,0%);fill-opacity:1;" d="M 18.261719 11.179688 C 18.300781 11.179688 18.339844 11.179688 18.378906 11.179688 C 18.371094 11.273438 18.359375 11.367188 18.339844 11.460938 C 18.40625 11.453125 18.464844 11.464844 18.519531 11.5 C 18.554688 11.425781 18.585938 11.351562 18.621094 11.28125 C 18.78125 11.242188 18.9375 11.261719 19.078125 11.339844 C 19.105469 11.433594 19.105469 11.527344 19.078125 11.621094 C 19.035156 11.679688 18.976562 11.707031 18.898438 11.699219 C 18.914062 11.601562 18.941406 11.507812 18.980469 11.421875 C 18.886719 11.421875 18.792969 11.421875 18.699219 11.421875 C 18.707031 11.484375 18.695312 11.546875 18.660156 11.601562 C 18.238281 11.703125 18.105469 11.566406 18.261719 11.179688 Z M 18.261719 11.179688 "/>
<path style=" stroke:none;fill-rule:evenodd;fill:rgb(81.960784%,89.411765%,0%);fill-opacity:1;" d="M 1.378906 11.261719 C 1.511719 11.25 1.636719 11.261719 1.761719 11.300781 C 1.847656 11.441406 1.828125 11.558594 1.699219 11.660156 C 1.625 11.601562 1.609375 11.535156 1.660156 11.460938 C 1.445312 11.429688 1.234375 11.441406 1.019531 11.5 C 1.054688 11.597656 1.054688 11.6875 1.019531 11.78125 C 0.875 11.703125 0.828125 11.582031 0.878906 11.421875 C 1.042969 11.34375 1.210938 11.289062 1.378906 11.261719 Z M 1.378906 11.261719 "/>
<path style=" stroke:none;fill-rule:evenodd;fill:rgb(85.882353%,93.72549%,0%);fill-opacity:1;" d="M 2.019531 12.539062 C 2.1875 12.6875 2.199219 12.839844 2.058594 13 C 1.792969 13.015625 1.554688 13.101562 1.339844 13.261719 C 1.296875 13.210938 1.289062 13.15625 1.320312 13.101562 C 1.726562 12.867188 1.714844 12.828125 1.28125 12.980469 C 1.234375 12.960938 1.199219 12.925781 1.179688 12.878906 C 1.460938 12.765625 1.742188 12.652344 2.019531 12.539062 Z M 2.019531 12.539062 "/>
<path style=" stroke:none;fill-rule:evenodd;fill:rgb(8.627451%,8.235294%,1.176471%);fill-opacity:1;" d="M 1.898438 12.738281 C 1.960938 12.738281 2 12.761719 2.019531 12.820312 C 1.953125 12.871094 1.878906 12.910156 1.800781 12.941406 C 1.78125 12.886719 1.773438 12.835938 1.78125 12.78125 C 1.832031 12.789062 1.871094 12.777344 1.898438 12.738281 Z M 1.898438 12.738281 "/>
<path style=" stroke:none;fill-rule:evenodd;fill:rgb(83.921569%,91.372549%,0%);fill-opacity:1;" d="M 17.980469 12.539062 C 18.238281 12.601562 18.492188 12.683594 18.738281 12.78125 C 18.792969 12.832031 18.792969 12.886719 18.738281 12.941406 C 18.511719 12.859375 18.285156 12.78125 18.058594 12.699219 C 17.980469 12.730469 17.96875 12.777344 18.019531 12.839844 C 18.234375 12.910156 18.449219 12.984375 18.660156 13.058594 C 18.710938 13.117188 18.703125 13.171875 18.640625 13.21875 C 18.382812 13.121094 18.121094 13.03125 17.859375 12.941406 C 17.789062 12.773438 17.832031 12.636719 17.980469 12.539062 Z M 17.980469 12.539062 "/>
<path style=" stroke:none;fill-rule:evenodd;fill:rgb(85.490196%,92.941176%,0%);fill-opacity:1;" d="M 17.339844 13.78125 C 17.515625 13.800781 17.542969 13.875 17.421875 14 C 17.542969 14.183594 17.648438 14.175781 17.738281 13.980469 C 17.78125 14 17.820312 14.019531 17.859375 14.039062 C 17.742188 14.183594 17.773438 14.285156 17.960938 14.339844 C 17.996094 14.230469 18.066406 14.179688 18.179688 14.179688 C 18.167969 14.28125 18.136719 14.375 18.078125 14.460938 C 18.039062 14.5 17.992188 14.507812 17.941406 14.480469 C 17.695312 14.367188 17.464844 14.242188 17.238281 14.101562 C 17.257812 13.992188 17.292969 13.886719 17.339844 13.78125 Z M 17.339844 13.78125 "/>
<path style=" stroke:none;fill-rule:evenodd;fill:rgb(84.705882%,92.156863%,0%);fill-opacity:1;" d="M 2.460938 13.859375 C 2.667969 13.863281 2.757812 13.972656 2.71875 14.179688 C 2.492188 14.355469 2.246094 14.484375 1.980469 14.558594 C 1.867188 14.472656 1.835938 14.359375 1.878906 14.21875 C 2.078125 14.105469 2.273438 13.984375 2.460938 13.859375 Z M 2.460938 13.859375 "/>
<path style=" stroke:none;fill-rule:evenodd;fill:rgb(7.45098%,7.058824%,0.784314%);fill-opacity:1;" d="M 2.460938 14.019531 C 2.5 14.019531 2.539062 14.019531 2.578125 14.019531 C 2.589844 14.066406 2.574219 14.105469 2.539062 14.140625 C 2.378906 14.234375 2.21875 14.328125 2.058594 14.421875 C 2.019531 14.40625 1.992188 14.378906 1.980469 14.339844 C 2.144531 14.230469 2.300781 14.125 2.460938 14.019531 Z M 2.460938 14.019531 "/>
<path style=" stroke:none;fill-rule:evenodd;fill:rgb(81.176471%,88.627451%,0%);fill-opacity:1;" d="M 16.660156 14.898438 C 16.699219 14.898438 16.726562 14.917969 16.738281 14.960938 C 16.769531 15.089844 16.8125 15.214844 16.859375 15.339844 C 17.046875 15.386719 17.234375 15.433594 17.421875 15.480469 C 17.382812 15.539062 17.332031 15.570312 17.261719 15.578125 C 16.964844 15.511719 16.949219 15.566406 17.21875 15.738281 C 17.167969 15.835938 17.101562 15.84375 17.019531 15.761719 C 16.835938 15.59375 16.644531 15.4375 16.441406 15.300781 C 16.414062 15.242188 16.4375 15.203125 16.5 15.179688 C 16.554688 15.246094 16.625 15.277344 16.699219 15.28125 C 16.617188 15.160156 16.605469 15.03125 16.660156 14.898438 Z M 16.660156 14.898438 "/>
<path style=" stroke:none;fill-rule:evenodd;fill:rgb(83.137255%,90.588235%,0%);fill-opacity:1;" d="M 3.21875 15.019531 C 3.429688 15.027344 3.515625 15.132812 3.480469 15.339844 C 3.328125 15.464844 3.171875 15.59375 3.019531 15.71875 C 2.746094 15.847656 2.632812 15.757812 2.679688 15.460938 C 2.875 15.328125 3.054688 15.179688 3.21875 15.019531 Z M 3.21875 15.019531 "/>
<path style=" stroke:none;fill-rule:evenodd;fill:rgb(7.45098%,7.45098%,0.784314%);fill-opacity:1;" d="M 3.21875 15.179688 C 3.261719 15.179688 3.300781 15.179688 3.339844 15.179688 C 3.347656 15.222656 3.339844 15.261719 3.320312 15.300781 C 3.171875 15.425781 3.015625 15.542969 2.859375 15.660156 C 2.796875 15.636719 2.777344 15.597656 2.800781 15.539062 C 2.949219 15.425781 3.085938 15.304688 3.21875 15.179688 Z M 3.21875 15.179688 "/>
<path style=" stroke:none;fill-rule:evenodd;fill:rgb(79.215686%,86.27451%,0%);fill-opacity:1;" d="M 4.179688 15.980469 C 4.238281 15.976562 4.28125 16.003906 4.300781 16.058594 C 4.253906 16.125 4.199219 16.1875 4.140625 16.238281 C 4.214844 16.25 4.285156 16.246094 4.359375 16.21875 C 4.425781 16.226562 4.484375 16.246094 4.539062 16.28125 C 4.386719 16.335938 4.234375 16.398438 4.078125 16.460938 C 4.035156 16.636719 3.980469 16.808594 3.921875 16.980469 C 3.871094 16.945312 3.835938 16.898438 3.820312 16.839844 C 3.953125 16.503906 3.910156 16.46875 3.699219 16.738281 C 3.660156 16.726562 3.632812 16.699219 3.621094 16.660156 C 3.808594 16.433594 3.996094 16.207031 4.179688 15.980469 Z M 4.179688 15.980469 "/>
<path style=" stroke:none;fill-rule:evenodd;fill:rgb(79.215686%,86.27451%,0%);fill-opacity:1;" d="M 15.699219 16.019531 C 15.757812 16.027344 15.808594 16.046875 15.859375 16.078125 C 15.984375 16.246094 16.125 16.398438 16.28125 16.539062 C 16.320312 16.753906 16.234375 16.855469 16.019531 16.839844 C 15.851562 16.683594 15.699219 16.519531 15.558594 16.339844 C 15.511719 16.1875 15.558594 16.082031 15.699219 16.019531 Z M 15.699219 16.019531 "/>
<path style=" stroke:none;fill-rule:evenodd;fill:rgb(5.882353%,5.882353%,0.392157%);fill-opacity:1;" d="M 15.699219 16.179688 C 15.898438 16.296875 16.058594 16.457031 16.179688 16.660156 C 16.144531 16.703125 16.105469 16.710938 16.058594 16.679688 C 15.933594 16.554688 15.808594 16.425781 15.679688 16.300781 C 15.660156 16.257812 15.667969 16.21875 15.699219 16.179688 Z M 15.699219 16.179688 "/>
<path style=" stroke:none;fill-rule:evenodd;fill:rgb(83.529412%,90.980392%,0%);fill-opacity:1;" d="M 5.300781 16.898438 C 5.339844 16.898438 5.378906 16.898438 5.421875 16.898438 C 5.316406 17.144531 5.179688 17.378906 5.019531 17.601562 C 5.0625 17.65625 5.117188 17.695312 5.179688 17.71875 C 5.160156 17.765625 5.125 17.800781 5.078125 17.820312 C 4.988281 17.773438 4.914062 17.707031 4.859375 17.621094 C 5.007812 17.378906 5.152344 17.140625 5.300781 16.898438 Z M 5.300781 16.898438 "/>
<path style=" stroke:none;fill-rule:evenodd;fill:rgb(83.529412%,90.980392%,0%);fill-opacity:1;" d="M 14.660156 16.820312 C 14.816406 16.902344 14.804688 16.976562 14.621094 17.039062 C 14.761719 17.261719 14.910156 17.484375 15.058594 17.699219 C 15.03125 17.730469 14.996094 17.757812 14.960938 17.78125 C 14.796875 17.570312 14.644531 17.359375 14.5 17.140625 C 14.449219 17.160156 14.402344 17.1875 14.359375 17.21875 C 14.339844 17.179688 14.320312 17.140625 14.300781 17.101562 C 14.429688 17.015625 14.550781 16.921875 14.660156 16.820312 Z M 14.660156 16.820312 "/>
<path style=" stroke:none;fill-rule:evenodd;fill:rgb(85.098039%,92.54902%,0%);fill-opacity:1;" d="M 13.21875 17.621094 C 13.328125 17.605469 13.417969 17.632812 13.5 17.699219 C 13.609375 17.90625 13.703125 18.121094 13.78125 18.339844 C 13.773438 18.441406 13.734375 18.464844 13.660156 18.421875 C 13.566406 18.179688 13.453125 17.953125 13.320312 17.738281 C 13.285156 17.765625 13.265625 17.796875 13.261719 17.839844 C 13.347656 18.0625 13.441406 18.28125 13.539062 18.5 C 13.511719 18.53125 13.476562 18.558594 13.441406 18.578125 C 13.296875 18.316406 13.171875 18.042969 13.058594 17.761719 C 13.109375 17.703125 13.160156 17.65625 13.21875 17.621094 Z M 13.21875 17.621094 "/>
<path style=" stroke:none;fill-rule:evenodd;fill:rgb(83.921569%,91.372549%,0%);fill-opacity:1;" d="M 6.460938 17.5 C 6.503906 17.515625 6.546875 17.542969 6.578125 17.578125 C 6.546875 17.675781 6.507812 17.769531 6.460938 17.859375 C 6.488281 17.933594 6.527344 17.949219 6.578125 17.898438 C 6.625 17.800781 6.675781 17.707031 6.738281 17.621094 C 6.789062 17.636719 6.816406 17.667969 6.820312 17.71875 C 6.792969 17.921875 6.6875 18.0625 6.5 18.140625 C 6.4375 18.238281 6.398438 18.347656 6.378906 18.460938 C 6.328125 18.460938 6.273438 18.460938 6.21875 18.460938 C 6.257812 18.308594 6.308594 18.160156 6.378906 18.019531 C 6.34375 17.976562 6.316406 17.929688 6.300781 17.878906 C 6.335938 17.746094 6.390625 17.617188 6.460938 17.5 Z M 6.460938 17.5 "/>
<path style=" stroke:none;fill-rule:evenodd;fill:rgb(84.313725%,92.156863%,0%);fill-opacity:1;" d="M 7.699219 18.019531 C 7.9375 17.957031 8.070312 18.046875 8.101562 18.28125 C 8.0625 18.488281 8.015625 18.695312 7.960938 18.898438 C 7.929688 18.957031 7.886719 18.984375 7.820312 18.980469 C 7.839844 18.75 7.878906 18.523438 7.941406 18.300781 C 7.925781 18.261719 7.914062 18.21875 7.898438 18.179688 C 7.875 18.1875 7.855469 18.203125 7.839844 18.21875 C 7.777344 18.464844 7.707031 18.703125 7.621094 18.941406 C 7.574219 18.921875 7.53125 18.898438 7.5 18.859375 C 7.585938 18.585938 7.652344 18.304688 7.699219 18.019531 Z M 7.699219 18.019531 "/>
<path style=" stroke:none;fill-rule:evenodd;fill:rgb(83.137255%,90.980392%,0%);fill-opacity:1;" d="M 9.140625 18.261719 C 9.265625 18.242188 9.378906 18.265625 9.480469 18.339844 C 9.496094 18.382812 9.476562 18.410156 9.421875 18.421875 C 9.355469 18.398438 9.289062 18.386719 9.21875 18.378906 C 9.21875 18.609375 9.207031 18.835938 9.179688 19.058594 C 9.277344 19.027344 9.371094 19.027344 9.460938 19.058594 C 9.417969 19.15625 9.34375 19.195312 9.238281 19.179688 C 9.160156 19.1875 9.09375 19.160156 9.039062 19.101562 C 9.023438 18.8125 9.058594 18.53125 9.140625 18.261719 Z M 9.140625 18.261719 "/>
<path style=" stroke:none;fill-rule:evenodd;fill:rgb(85.490196%,93.333333%,0%);fill-opacity:1;" d="M 11.859375 18.058594 C 11.972656 18.042969 12.074219 18.070312 12.160156 18.140625 C 12.257812 18.398438 12.316406 18.664062 12.339844 18.941406 C 12.292969 18.949219 12.253906 18.933594 12.21875 18.898438 C 12.203125 18.792969 12.164062 18.699219 12.101562 18.621094 C 12.058594 18.710938 12.058594 18.804688 12.101562 18.898438 C 12.074219 18.988281 12.027344 19.015625 11.960938 18.980469 C 11.898438 18.738281 11.839844 18.5 11.78125 18.261719 C 11.796875 18.1875 11.824219 18.121094 11.859375 18.058594 Z M 11.859375 18.058594 "/>
<path style=" stroke:none;fill-rule:evenodd;fill:rgb(3.529412%,3.529412%,0%);fill-opacity:1;" d="M 11.980469 18.179688 C 12.042969 18.242188 12.082031 18.324219 12.101562 18.421875 C 12.085938 18.460938 12.058594 18.488281 12.019531 18.5 C 11.953125 18.394531 11.941406 18.289062 11.980469 18.179688 Z M 11.980469 18.179688 "/>
<path style=" stroke:none;fill-rule:evenodd;fill:rgb(83.137255%,90.588235%,0%);fill-opacity:1;" d="M 10.460938 18.261719 C 10.511719 18.261719 10.566406 18.261719 10.621094 18.261719 C 10.628906 18.527344 10.65625 18.796875 10.699219 19.058594 C 10.75 19.03125 10.804688 19.015625 10.859375 19.019531 C 10.859375 19.074219 10.859375 19.125 10.859375 19.179688 C 10.734375 19.199219 10.621094 19.171875 10.519531 19.101562 C 10.503906 18.820312 10.484375 18.539062 10.460938 18.261719 Z M 10.460938 18.261719 "/>
</g>
</svg>
