<svg width="36" height="36" viewBox="0 0 36 36" fill="none" xmlns="http://www.w3.org/2000/svg">
<rect width="36" height="36" rx="5" fill="#FFEEEA"/>
<path d="M25.5859 20.707C25.4939 20.771 23.5859 22.79 23.5859 24.207C23.5859 25.701 24.5349 26.655 25.5859 26.707C26.4919 26.751 27.5859 25.816 27.5859 24.207C27.5859 22.707 25.6779 20.771 25.5859 20.707Z" fill="#ED7358"/>
<path d="M15.172 26.707C15.55 27.085 16.052 27.293 16.586 27.293C17.12 27.293 17.622 27.085 18 26.707L25 19.707L24.293 19L16.586 11.293L14.293 9L12.879 10.414L15.172 12.707L9.586 18.293C9.208 18.671 9 19.173 9 19.707C9 20.241 9.208 20.743 9.586 21.121L15.172 26.707Z" fill="#ED7358"/>
<path d="M16.586 14.1211L22.172 19.7071H11L16.586 14.1211Z" fill="#ED7358"/>
</svg>
