<?xml version="1.0" encoding="iso-8859-1"?>
<!-- Generator: Adobe Illustrator 19.0.0, SVG Export Plug-In . SVG Version: 6.00 Build 0)  -->
<svg version="1.1" id="Layer_1" xmlns="http://www.w3.org/2000/svg" xmlns:xlink="http://www.w3.org/1999/xlink" x="0px" y="0px"
	 viewBox="0 0 490.667 490.667" style="enable-background:new 0 0 490.667 490.667;" xml:space="preserve">
<g>
	<g>
		<path d="M256,256.853v83.605c24.32-3.968,42.667-21.184,42.667-41.792C298.667,278.059,280.32,260.821,256,256.853z"/>
	</g>
</g>
<g>
	<g>
		<path d="M192,192c0,20.608,18.347,37.845,42.667,41.813v-83.627C210.368,154.155,192,171.392,192,192z"/>
	</g>
</g>
<g>
	<g>
		<path d="M245.333,0C110.059,0,0,110.059,0,245.333s110.059,245.333,245.333,245.333s245.333-110.059,245.333-245.333
			S380.629,0,245.333,0z M320,298.667c0,32.171-27.904,58.603-64,63.083v11.584c0,5.888-4.779,10.667-10.667,10.667
			s-10.667-4.779-10.667-10.667v-11.605c-36.096-4.48-64-30.912-64-63.083c0-5.888,4.779-10.667,10.667-10.667
			S192,292.757,192,298.645c0,20.608,18.347,37.845,42.667,41.813v-85.397c-36.096-4.48-64-30.912-64-63.083
			s27.904-58.603,64-63.083v-11.563c0-5.888,4.779-10.667,10.667-10.667S256,111.445,256,117.333v11.584
			c36.096,4.48,64,30.912,64,63.083c0,5.888-4.779,10.667-10.667,10.667s-10.667-4.779-10.667-10.667
			c0-20.608-18.347-37.845-42.667-41.813v85.397C292.096,240.064,320,266.496,320,298.667z"/>
	</g>
</g>
<g>
</g>
<g>
</g>
<g>
</g>
<g>
</g>
<g>
</g>
<g>
</g>
<g>
</g>
<g>
</g>
<g>
</g>
<g>
</g>
<g>
</g>
<g>
</g>
<g>
</g>
<g>
</g>
<g>
</g>
</svg>
